<?xml version="1.0" encoding="UTF-8" standalone="no"?>
<!-- Created with Inkscape (http://www.inkscape.org/) -->

<svg
   width="210mm"
   height="297mm"
   viewBox="0 0 210 297"
   version="1.1"
   id="svg1"
   inkscape:version="1.4.2 (f4327f4, 2025-05-13)"
   sodipodi:docname="drawing_pattern.svg"
   xmlns:inkscape="http://www.inkscape.org/namespaces/inkscape"
   xmlns:sodipodi="http://sodipodi.sourceforge.net/DTD/sodipodi-0.dtd"
   xmlns="http://www.w3.org/2000/svg"
   xmlns:svg="http://www.w3.org/2000/svg">
  <sodipodi:namedview
     id="namedview1"
     pagecolor="#ffffff"
     bordercolor="#000000"
     borderopacity="0.25"
     inkscape:showpageshadow="2"
     inkscape:pageopacity="0.0"
     inkscape:pagecheckerboard="0"
     inkscape:deskcolor="#d1d1d1"
     inkscape:document-units="mm"
     inkscape:zoom="0.71891835"
     inkscape:cx="396.42889"
     inkscape:cy="561.25984"
     inkscape:window-width="1920"
     inkscape:window-height="1009"
     inkscape:window-x="-8"
     inkscape:window-y="-8"
     inkscape:window-maximized="1"
     inkscape:current-layer="layer1" />
  <defs
     id="defs1" />
  <g
     inkscape:label="Layer 1"
     inkscape:groupmode="layer"
     id="layer1">
    <path
       d="m 48.94039,51.202024 c -0.164427,-0.448772 -0.24383,-0.523678 -0.466437,-0.440017 -0.194296,0.07302 -0.411454,0.01421 -0.411454,-0.111427 0,-0.05121 0.09615,-0.244731 0.213673,-0.430056 0.117518,-0.185325 0.281778,-0.5043 0.365021,-0.708833 0.239054,-0.587357 0.440408,-1.798934 0.298969,-1.798934 -0.04167,0 -0.106525,0.232689 -0.244381,0.876753 -0.04746,0.221745 -0.43588,0.884048 -0.58437,0.996429 -0.02792,0.02113 -0.105579,0.170889 -0.172577,0.332801 -0.106217,0.256673 -0.133748,0.28657 -0.214927,0.233369 -0.05121,-0.03356 -0.106576,-0.08771 -0.123044,-0.120334 -0.05051,-0.100092 -0.210105,0.04569 -0.394981,0.360812 -0.09483,0.161638 -0.20238,0.293886 -0.239003,0.293886 -0.124885,0 -0.18092,-0.241377 -0.150039,-0.646308 0.02332,-0.305818 0.01347,-0.409468 -0.04659,-0.490753 -0.124586,-0.168586 -0.06281,-0.30749 0.187335,-0.421224 0.580783,-0.264067 1.17086,-0.878998 1.320135,-1.375745 0.04096,-0.136315 0.114027,-0.381663 0.162357,-0.545218 0.08657,-0.292972 0.09072,-0.297176 0.280119,-0.284138 0.370632,0.02551 0.727807,0.02873 0.871689,0.0078 0.141337,-0.02051 0.148546,-0.0089 0.270769,0.436506 0.215413,0.785016 0.51115,1.187495 1.241299,1.689314 0.229821,0.157954 0.428255,0.320383 0.440968,0.360954 0.01271,0.04057 -0.01161,0.134489 -0.05407,0.208706 -0.05084,0.08888 -0.07718,0.263705 -0.07718,0.512201 0,0.400855 -0.05732,0.607337 -0.168596,0.607337 -0.03742,0 -0.160025,-0.160581 -0.272449,-0.356847 -0.112424,-0.196264 -0.226842,-0.356845 -0.254257,-0.356845 -0.02742,0 -0.08844,0.04277 -0.135605,0.09504 -0.04717,0.05227 -0.106065,0.07967 -0.130885,0.06088 -0.09524,-0.07207 -0.65111,-1.06093 -0.792341,-1.409505 -0.09033,-0.222949 -0.157617,-0.49652 -0.172395,-0.700923 -0.03362,-0.465126 -0.05749,-0.543757 -0.122203,-0.402571 -0.07002,0.152758 -0.01076,0.728425 0.131902,1.281454 0.142348,0.551794 0.390924,1.071486 0.693344,1.449546 0.274518,0.343181 0.2417,0.396977 -0.243006,0.398334 l -0.325155,8.94e-4 -0.160521,0.371715 c -0.228531,0.529192 -0.334485,0.534252 -0.521111,0.02489 z M 46.120562,48.53903 c -0.199183,-0.05153 -0.38931,-0.296932 -0.38931,-0.502481 0,-0.130245 0.02046,-0.145369 0.196683,-0.145369 0.409223,0 0.645242,-0.32661 0.70792,-0.979647 0.02422,-0.252383 0.04993,-0.329925 0.104977,-0.316642 0.266823,0.06439 0.402135,0.942183 0.21437,1.390658 -0.191099,0.456446 -0.476975,0.64602 -0.83464,0.553481 z m 5.535944,-0.03905 c -0.205689,-0.134684 -0.437109,-0.64586 -0.437109,-0.96552 0,-0.491909 0.278055,-1.161306 0.433512,-1.043651 0.02869,0.02171 0.05217,0.199339 0.05217,0.394724 0,0.195385 0.03014,0.443565 0.06697,0.55151 0.08541,0.250326 0.296272,0.454133 0.469851,0.454133 0.34907,0 0.401771,0.263633 0.10137,0.507075 -0.256103,0.207538 -0.475523,0.240041 -0.686757,0.101729 z M 43.88568,46.786966 c -1.025263,-0.370255 -1.736845,-0.994818 -2.096089,-1.839765 -0.289544,-0.68101 -0.484164,-1.635544 -0.333472,-1.635544 0.02607,0 0.131178,0.161378 0.23359,0.358618 0.1869,0.359975 0.487154,0.678343 0.995708,1.055771 0.385212,0.285891 0.894556,0.419705 1.827216,0.480041 0.662772,0.04288 0.854761,0.07603 1.048713,0.181087 0.4428,0.239857 0.75211,0.627371 0.752536,0.942805 4.99e-4,0.185628 -0.19797,0.178037 -0.564443,-0.02162 -0.457467,-0.249221 -1.301608,-0.398439 -1.475217,-0.260773 -0.05954,0.04721 -0.02548,0.111434 0.186393,0.351462 0.314056,0.355789 0.323051,0.504215 0.03174,0.523898 -0.106617,0.0072 -0.379623,-0.05399 -0.606676,-0.135986 z m 9.648775,0.112975 c -0.07761,-0.09504 -0.0157,-0.235692 0.222602,-0.505688 0.208507,-0.236241 0.241705,-0.299421 0.182129,-0.346661 -0.173609,-0.137667 -1.017751,0.01155 -1.475218,0.260772 -0.366473,0.199652 -0.564695,0.207243 -0.564442,0.02162 5e-4,-0.315394 0.309736,-0.702947 0.752404,-0.942733 0.193077,-0.104586 0.385734,-0.13817 1.034239,-0.180285 1.131353,-0.07347 1.495008,-0.188274 2.059602,-0.6502 0.40638,-0.332481 0.597838,-0.556858 0.796004,-0.932863 0.09051,-0.171732 0.186687,-0.31224 0.213734,-0.31224 0.128375,0 -0.01123,0.806547 -0.246912,1.426522 -0.389993,1.025897 -1.053483,1.642369 -2.208933,2.052399 -0.412577,0.146409 -0.701261,0.187668 -0.765209,0.109363 z m -6.088138,-0.379828 c -0.159291,-0.05946 -0.355171,-0.307732 -0.355171,-0.450175 0,-0.04425 0.08822,-0.148637 0.196031,-0.231983 0.221752,-0.171423 0.386336,-0.462023 0.386589,-0.682594 0,-0.08178 -0.06453,-0.295885 -0.143594,-0.475795 -0.16988,-0.386526 -0.184972,-0.535268 -0.05432,-0.535268 0.113405,0 0.505184,0.468489 0.690333,0.825496 0.443008,0.854219 -0.0042,1.817443 -0.719868,1.550319 z m 2.753159,-0.03815 c -0.340257,-0.214926 -0.356684,-0.847591 -0.04085,-1.573233 0.164356,-0.377611 0.484366,-0.764427 0.632401,-0.764427 0.114504,0 0.111726,0.03191 -0.03323,0.381794 -0.205223,0.495351 -0.149714,0.813768 0.209398,1.201221 0.2088,0.225282 0.223092,0.258057 0.178855,0.410245 -0.110006,0.378454 -0.606615,0.559141 -0.946579,0.3444 z M 48.870417,46.28106 c -0.10441,-0.10057 -0.127971,-0.172587 -0.127971,-0.391157 0,-0.216794 0.02708,-0.301054 0.14197,-0.441742 0.276092,-0.338092 0.683681,-0.174049 0.683681,0.275164 0,0.558418 -0.380877,0.862896 -0.69768,0.557735 z m -1.779271,-1.60307 c -0.06678,-0.06484 -0.274407,-0.17706 -0.461393,-0.249384 -0.388602,-0.150311 -0.873489,-0.168541 -2.209828,-0.08309 -0.963785,0.06163 -1.226293,0.01421 -1.784943,-0.322423 -0.5848,-0.352397 -1.058456,-0.980916 -0.9647,-1.280108 0.03651,-0.116498 0.193244,-0.08236 0.627251,0.136618 0.232579,0.117347 0.414358,0.158499 0.798756,0.180827 0.700548,0.04069 0.867894,-0.02779 1.302068,-0.532825 0.383053,-0.445578 0.493119,-0.487608 0.679437,-0.25945 0.145647,0.178355 0.14971,0.320824 0.01814,0.636629 -0.07018,0.168459 -0.08558,0.26157 -0.05039,0.304658 0.02787,0.03413 0.256999,0.08116 0.509171,0.104518 0.967832,0.08964 1.492145,0.494905 1.680441,1.298901 0.05045,0.21541 0.02339,0.22765 -0.144008,0.06513 z m 3.836845,0.09302 c 0,-0.01513 0.04366,-0.170396 0.09702,-0.345039 0.205527,-0.672691 0.717051,-1.023722 1.617121,-1.10975 0.261618,-0.02501 0.498334,-0.07322 0.526038,-0.107149 0.03478,-0.0426 0.0191,-0.136756 -0.0507,-0.304289 -0.136354,-0.327298 -0.128932,-0.509243 0.0269,-0.659346 0.206423,-0.198837 0.309983,-0.156907 0.637734,0.258214 0.400784,0.507621 0.608123,0.595268 1.316816,0.556645 0.406354,-0.02215 0.579761,-0.06043 0.816953,-0.180364 0.605867,-0.306353 0.736315,-0.266064 0.56596,0.174798 -0.134603,0.348331 -0.470241,0.707375 -0.907643,0.970931 -0.556535,0.335336 -0.816144,0.381273 -1.804992,0.319382 -1.665856,-0.104263 -2.165506,-0.04509 -2.60947,0.309031 -0.179897,0.143494 -0.231738,0.169652 -0.231738,0.116936 z m -2.76393,-0.427396 c -0.108463,-0.09303 -0.112727,-0.121489 -0.08318,-0.555342 0.02893,-0.424851 0.02255,-0.47168 -0.08997,-0.660241 -0.364606,-0.610981 -0.374694,-0.668052 -0.123366,-0.698092 0.381473,-0.04559 0.863441,0.387847 0.969972,0.872312 0.06785,0.308563 -0.01291,0.780291 -0.168854,0.986353 -0.135028,0.178415 -0.335274,0.200244 -0.504598,0.05501 z m 1.541371,0.0364 c -0.149649,-0.106931 -0.291133,-0.462411 -0.291133,-0.731472 0,-0.660488 0.467843,-1.283039 0.967306,-1.287173 0.132721,-0.0011 0.157845,0.02051 0.157845,0.135736 0,0.07537 -0.0631,0.258885 -0.140224,0.407804 -0.187218,0.361505 -0.214735,0.485864 -0.204849,0.925811 0.01064,0.473792 -0.04624,0.611514 -0.251591,0.609136 -0.08587,-9.94e-4 -0.192682,-0.02792 -0.237354,-0.05984 z m -4.264428,-1.403892 c 0.0022,-0.315323 0.09049,-0.645109 0.202856,-0.757253 0.09603,-0.09584 0.166112,-0.106626 0.500216,-0.07697 0.213698,0.01896 0.497819,0.07497 0.63138,0.124454 0.266455,0.09872 0.760297,0.441451 0.787803,0.546742 0.02351,0.08998 -0.214775,0.141502 -0.660313,0.142773 -0.395619,0.0011 -1.109588,0.08117 -1.329539,0.149043 -0.122558,0.03782 -0.133465,0.02721 -0.132403,-0.128784 z m 7.028352,0.09242 c -0.100534,-0.02901 -0.543219,-0.07552 -0.983747,-0.10337 -0.440529,-0.02785 -0.817237,-0.07064 -0.837135,-0.09509 -0.05311,-0.06528 0.165337,-0.265536 0.501674,-0.459905 0.334899,-0.193539 0.971697,-0.32891 1.247384,-0.26517 0.229113,0.05297 0.314521,0.207993 0.356694,0.647427 0.03608,0.375947 0.04183,0.370372 -0.28487,0.27611 z"
       style="fill:#000000;stroke-width:0.0559844"
       id="path1" />
  </g>
</svg>
