<?xml version="1.0" encoding="UTF-8" standalone="no"?>
<!-- Created with Inkscape (http://www.inkscape.org/) -->

<svg
   width="210mm"
   height="297mm"
   viewBox="0 0 210 297"
   version="1.1"
   id="svg1"
   inkscape:version="1.4.2 (f4327f4, 2025-05-13)"
   sodipodi:docname="frame.svg"
   xmlns:inkscape="http://www.inkscape.org/namespaces/inkscape"
   xmlns:sodipodi="http://sodipodi.sourceforge.net/DTD/sodipodi-0.dtd"
   xmlns="http://www.w3.org/2000/svg"
   xmlns:svg="http://www.w3.org/2000/svg">
  <sodipodi:namedview
     id="namedview1"
     pagecolor="#ffffff"
     bordercolor="#000000"
     borderopacity="0.25"
     inkscape:showpageshadow="2"
     inkscape:pageopacity="0.0"
     inkscape:pagecheckerboard="0"
     inkscape:deskcolor="#d1d1d1"
     inkscape:document-units="mm"
     inkscape:zoom="22.627416"
     inkscape:cx="28.925088"
     inkscape:cy="1089.0992"
     inkscape:window-width="1920"
     inkscape:window-height="1009"
     inkscape:window-x="-8"
     inkscape:window-y="-8"
     inkscape:window-maximized="1"
     inkscape:current-layer="layer1" />
  <defs
     id="defs1" />
  <g
     inkscape:label="Layer 1"
     inkscape:groupmode="layer"
     id="layer1">
    <path
       id="path4"
       style="fill:#100f0d;fill-opacity:1;fill-rule:nonzero;stroke:none;stroke-width:0.0352778"
       d="m 6.240963,258.23075 c -0.07952,0.001 -0.07976,0.1221 0,0.12351 10.676502,0.17744 21.381664,0.072 32.059542,0 0.07938,-3.6e-4 0.07973,-0.1228 0,-0.12351 -10.677878,-0.072 -21.38304,-0.17709 -32.059542,0 z m 32.951477,0.0289 c -0.08921,-0.003 -0.178036,-0.002 -0.254765,0.0202 -0.06883,0.0196 -0.05332,0.11389 0.0031,0.12661 0.151712,0.0417 0.354681,0.007 0.509529,0.007 0.09102,-3.5e-4 0.09137,-0.14108 0,-0.14108 -0.07902,0 -0.168657,-0.009 -0.257865,-0.0124 z m 0.116789,0.24805 c -0.02879,0.002 -0.056,0.0226 -0.05633,0.0599 -0.05421,11.02257 -0.02097,22.04689 -0.01137,33.06982 -10.988605,-0.19846 -22.01021,-0.0696 -33.000569,-0.003 -0.0926,7e-4 -0.09285,0.14382 0,0.14417 11.008425,0.0674 22.04827,0.19677 33.05483,-0.003 0.01362,0.003 0.02788,0.003 0.04134,-10e-4 0.03769,-6.8e-4 0.07548,-0.001 0.113171,-0.002 0.08537,-0.001 0.08537,-0.13036 0,-0.13177 -0.02068,-3.8e-4 -0.04133,-6.6e-4 -0.06201,-10e-4 0.0096,-11.02382 0.0432,-22.04894 -0.01137,-33.0724 -1.87e-4,-0.0424 -0.03507,-0.0626 -0.0677,-0.06 z m -33.20986,0.0873 c -0.03127,0.003 -0.06026,0.0244 -0.06046,0.0651 -0.042,9.65618 -0.235774,19.35221 -0.001,29.00702 -0.01329,1.29805 -0.04949,2.60508 0.0067,3.90105 0.0032,0.079 0.119533,0.0794 0.12299,0 0.05598,-1.2946 0.01957,-2.60022 0.0062,-3.89692 0.234928,-9.65616 0.04158,-19.35361 -5.16e-4,-29.01115 -2.25e-4,-0.0461 -0.03845,-0.068 -0.0739,-0.0651 z" />
    <path
       id="path9"
       style="fill:#100f0d;fill-opacity:1;fill-rule:nonzero;stroke:none;stroke-width:0.0352778"
       d="m 37.280929,259.12992 c -0.07783,-1.8e-4 -0.155803,0.003 -0.233061,0.004 -0.09349,3.5e-4 -0.09349,0.14486 0,0.14521 0.154517,7.1e-4 0.312523,0.0138 0.464571,-0.0145 0.05785,-0.0106 0.05785,-0.10569 0,-0.11627 -0.07602,-0.0141 -0.153679,-0.0179 -0.23151,-0.0181 z m 0.563789,0.001 c -0.09666,0 -0.09701,0.15038 0,0.15038 0.09701,0 0.09701,-0.15038 0,-0.15038 z m -30.727323,0.0496 c -0.09687,0 -0.09701,0.15054 0,0.15089 9.561372,0.0194 19.123381,0.0101 28.685071,-0.002 0.0949,-3.5e-4 0.0949,-0.14779 0,-0.14779 -9.56169,-0.0116 -19.123699,-0.021 -28.685071,-0.002 z m -0.114722,0.15503 c -0.036,0 -0.07176,0.0234 -0.07183,0.0698 -0.02053,10.44681 -0.0067,20.89375 -0.0067,31.34021 0,0.10125 0.157097,0.10125 0.157097,0 0,-10.44646 0.01428,-20.8934 -0.0062,-31.34021 -7e-5,-0.0464 -0.03635,-0.0698 -0.07235,-0.0698 z m 31.483867,0.007 c -0.03039,0.002 -0.0591,0.0235 -0.05943,0.063 h 5.17e-4 c -0.08184,10.03865 -0.172405,20.1077 0.0046,30.14493 0.0014,0.078 0.119512,0.078 0.120923,0 0.177094,-10.03723 0.08741,-20.10628 0.0052,-30.14493 -3.75e-4,-0.0448 -0.03739,-0.0658 -0.07183,-0.063 z m 0.05943,30.64154 c -0.03892,0.004 -0.07632,0.047 -0.05271,0.0935 0.0575,0.11395 0.03101,0.19346 -0.0057,0.30282 -0.01587,0.0487 0.05363,0.0907 0.08785,0.0512 0.105481,-0.12241 0.0959,-0.27822 0.02429,-0.41651 -0.01249,-0.0243 -0.03336,-0.0331 -0.05374,-0.031 z m -0.110588,0.59945 c -0.07371,0.007 -0.07119,0.12609 0.0078,0.12609 0.08149,0 0.08149,-0.12609 0,-0.12609 -0.0025,0 -0.0054,-2.4e-4 -0.0078,0 z m -0.341064,0.0868 c -0.09807,0 -0.09807,0.15193 0,0.15193 0.09772,0 0.09772,-0.15193 0,-0.15193 z m -30.742827,10e-4 c -0.09687,0 -0.09701,0.15002 0,0.15038 10.129274,0.0155 20.265407,0.0983 30.394011,-0.0114 0.0822,-7e-4 0.08255,-0.12709 0,-0.12815 -10.128604,-0.10972 -20.264737,-0.0267 -30.394011,-0.0109 z" />
    <path
       id="path18"
       style="fill:#100f0d;fill-opacity:1;fill-rule:nonzero;stroke:none;stroke-width:0.0352778"
       d="m 20.923271,255.2392 c -1.756682,-0.0608 -2.987862,2.21916 -4.782654,2.30374 -0.08544,0.004 -0.0864,0.13438 0,0.13332 2.107565,-0.0279 3.322022,-2.98452 5.521627,-2.13785 0.06671,0.0254 0.115381,-0.0886 0.04909,-0.11679 -0.27557,-0.11743 -0.537109,-0.17374 -0.788063,-0.18242 z m 1.122929,0.43047 c -0.04287,0.006 -0.06263,0.0662 -0.02015,0.0894 0.468948,0.25682 0.519505,1.08523 0.289388,1.49551 -0.04424,0.079 0.07667,0.14982 0.121439,0.0708 0.174872,-0.30798 0.20567,-0.65676 0.104387,-0.99684 -0.06615,-0.2219 -0.208421,-0.67299 -0.490926,-0.65887 -0.0014,6e-5 -0.0028,-1.9e-4 -0.0041,0 z m -1.348239,0.34829 c -0.376962,0.002 -0.766596,0.27829 -0.963248,0.58653 -0.198437,0.3108 -0.347929,0.81276 0.001,1.07487 0.0441,0.0332 0.09687,-0.0297 0.07235,-0.0723 -0.202459,-0.35171 -0.14457,-0.67441 0.08527,-1.00355 0.181646,-0.25965 0.560939,-0.48496 0.879533,-0.46767 0.0038,2e-4 0.0074,3.8e-4 0.01085,0 -0.06095,0.0157 -0.120102,0.0378 -0.179317,0.0636 -0.07292,0.0318 -0.0198,0.1604 0.05478,0.12971 0.108162,-0.0445 0.216311,-0.064 0.331246,-0.0817 0.07881,-0.0127 0.05769,-0.13521 -0.01809,-0.13591 -0.06007,-6.5e-4 -0.117742,0.007 -0.174149,0.0207 0.04779,-0.0194 0.0377,-0.10527 -0.02532,-0.1111 -0.02496,-0.002 -0.0498,-0.003 -0.07493,-0.003 z m -0.244429,0.35399 c -0.0108,0.001 -0.02148,0.007 -0.03101,0.0181 -0.351825,0.41557 -0.176243,1.08511 0.259932,1.36839 0.426508,0.27657 1.164985,0.26046 1.459343,-0.20309 0.035,-0.055 -0.04629,-0.11932 -0.09095,-0.0703 -0.300284,0.32914 -0.825361,0.40146 -1.21698,0.1912 -0.466478,-0.25047 -0.54151,-0.77756 -0.323494,-1.21853 0.02045,-0.0416 -0.01826,-0.0907 -0.05684,-0.0858 z m -1.297079,0.1664 c -0.01184,9.8e-4 -0.02352,0.006 -0.03462,0.015 -0.300708,0.24871 -0.537279,0.63468 -0.539502,1.03508 -3.88e-4,0.0653 0.104876,0.0838 0.117823,0.016 0.07292,-0.38453 0.201721,-0.70548 0.506945,-0.96583 0.04838,-0.0413 6.84e-4,-0.10451 -0.05064,-0.10025 z" />
    <path
       id="path20"
       style="fill:#100f0d;fill-opacity:1;fill-rule:nonzero;stroke:none;stroke-width:0.0352778"
       d="m 13.269991,254.39894 c -0.561939,-0.0325 -1.284302,0.25088 -1.33997,0.88729 -0.0063,0.0734 0.118948,0.0917 0.129708,0.0176 0.07037,-0.48502 0.537987,-0.72125 0.989604,-0.75913 -0.683974,0.26395 -0.665883,1.38041 -0.399459,2.00298 0.140906,0.32909 0.38961,0.57098 0.694531,0.74569 -0.133111,-0.0361 -0.262637,-0.0855 -0.386023,-0.15865 -0.360504,-0.21413 -0.715538,-0.61055 -0.898136,-0.98908 -0.02907,-0.06 -0.123773,-0.006 -0.09043,0.0532 0.458485,0.8219 1.088604,1.30385 2.022099,1.35444 0.525987,0.14209 1.101481,0.16522 1.558561,0.13384 0.08185,-0.006 0.08336,-0.1322 0,-0.12867 -0.735048,0.0293 -1.545555,-0.0555 -2.191597,-0.44183 -0.428166,-0.25577 -0.641802,-0.66278 -0.695565,-1.15032 -0.05898,-0.53552 -0.07108,-1.30762 0.742073,-1.35031 0.08188,-0.004 0.08283,-0.12604 0,-0.12815 -0.023,-5.5e-4 -0.04517,-2.8e-4 -0.06718,5.1e-4 0.0068,-0.0395 -0.01618,-0.0866 -0.06821,-0.0894 z m -1.353406,1.09916 c -0.02891,0.002 -0.05595,0.0226 -0.05633,0.0605 -0.0015,0.15381 1.6e-5,0.32792 0.09509,0.45527 0.02385,0.0317 0.07586,0.0231 0.07751,-0.0207 0.0046,-0.1457 -0.04423,-0.28784 -0.04754,-0.4346 -10e-4,-0.0427 -0.03597,-0.0631 -0.06873,-0.0605 z" />
    <path
       id="path21"
       style="fill:#100f0d;fill-opacity:1;fill-rule:nonzero;stroke:none;stroke-width:0.0352778"
       d="m 10.807609,255.03715 c -0.318434,0.008 -0.457739,0.60612 -0.422713,0.9002 0.09331,0.78105 0.827606,1.33809 1.5012,1.62419 0.02126,0.009 0.04168,0.007 0.05788,-0.001 0.05877,0.044 0.120054,0.0824 0.184485,0.11472 0.078,0.0392 0.147383,-0.0772 0.06925,-0.11782 -0.717832,-0.37359 -0.931967,-1.42572 -1.002523,-2.15491 -0.0073,-0.0751 -0.114728,-0.0776 -0.118856,0 -0.03046,0.56671 0.16917,1.35555 0.575159,1.86862 -0.28646,-0.17375 -0.564265,-0.34994 -0.783421,-0.62064 -0.144003,-0.17744 -0.256718,-0.37108 -0.310058,-0.59686 -0.04244,-0.16792 -0.04692,-0.33658 -0.01344,-0.50591 0.01792,-0.2406 0.162082,-0.34261 0.431498,-0.30593 0.06022,0.0448 0.140554,-0.0583 0.08062,-0.1049 -0.09263,-0.0719 -0.175595,-0.10161 -0.24908,-0.0997 z" />
    <path
       id="path27"
       style="fill:#100f0d;fill-opacity:1;fill-rule:nonzero;stroke:none;stroke-width:0.0352778"
       d="m 14.487488,254.61237 c -0.04673,8.8e-4 -0.09074,0.006 -0.130225,0.0155 -0.478755,0.11712 -0.807629,0.62436 -0.932759,1.06815 -0.02328,0.0825 0.105873,0.11856 0.129191,0.0357 0.08693,-0.30798 0.249733,-0.57214 0.499711,-0.77463 0.352778,-0.2854 0.883754,-0.27227 1.078487,0.20257 0.01475,0.0356 0.08115,0.0505 0.08888,0 0.05303,-0.34943 -0.406183,-0.55344 -0.733288,-0.54725 z m 0.668693,0.78961 c -0.0175,0.001 -0.0338,0.01 -0.04237,0.0295 -0.07853,0.17815 -0.211324,0.34501 -0.408244,0.39687 -0.212514,0.0561 -0.352085,-0.0501 -0.490409,-0.19223 -0.03601,-0.0367 -0.101085,-0.0102 -0.10697,0.0357 -0.0077,0.002 -0.01498,0.006 -0.02222,0.0119 -0.236079,0.18591 -0.162706,0.59919 -0.0646,0.84543 0.10169,0.25539 0.303593,0.40448 0.536402,0.50797 -0.528422,-0.13415 -1.015361,-0.48622 -1.065568,-1.07745 -0.0038,-0.0427 -0.06679,-0.0703 -0.0894,-0.0238 -0.129399,0.26705 0.170777,0.67934 0.352951,0.86455 0.263878,0.26917 0.675443,0.37213 1.037146,0.41341 0.04657,0.005 0.06657,-0.0319 0.06149,-0.0682 0.02362,0.007 0.04772,0.0142 0.07131,0.0212 0.08629,0.0251 0.12213,-0.1079 0.03669,-0.13436 -0.250261,-0.0769 -0.529453,-0.15388 -0.711063,-0.35708 -0.164777,-0.18427 -0.304295,-0.68608 -0.09715,-0.89142 0.109003,0.16082 0.341884,0.22791 0.528133,0.19792 0.268993,-0.0437 0.449025,-0.262 0.540535,-0.50436 0.0163,-0.0432 -0.02815,-0.0781 -0.06666,-0.0754 z" />
    <path
       id="path31"
       style="fill:#100f0d;fill-opacity:1;fill-rule:nonzero;stroke:none;stroke-width:0.0352778"
       d="m 4.920113,255.96215 c -0.372582,-7.5e-4 -0.745309,0.0128 -1.104842,0.0383 -0.06795,0.005 -0.0765,0.0888 -0.02584,0.11368 -0.0267,0.003 -0.0522,0.0221 -0.05478,0.0584 -0.05083,0.71861 -0.05373,1.49039 0.0098,2.20865 0.0019,0.0208 0.01183,0.0353 0.02532,0.0429 -0.0223,0.0364 -0.01538,0.0879 0.03876,0.0982 0.314466,0.0603 0.70571,0.0633 0.991671,0.2217 0.289913,0.16016 0.45094,0.48329 0.59893,0.76481 0.04092,0.0783 0.156557,0.01 0.117822,-0.0687 -0.14109,-0.28399 -0.2983,-0.58719 -0.566869,-0.77205 -0.306882,-0.21096 -0.74742,-0.22787 -1.104325,-0.28008 h -5.17e-4 c 4.05e-4,-0.002 8.3e-4,-0.004 10e-4,-0.007 0.06378,-0.71791 0.06016,-1.48969 0.0093,-2.20865 -0.0018,-0.0249 -0.01377,-0.0416 -0.02997,-0.0507 0.716024,0.0501 1.483736,0.0534 2.198316,-0.01 0.0024,-2.1e-4 0.005,-6e-4 0.0072,-0.001 0.05239,0.35948 0.06805,0.79529 0.27957,1.10433 0.183832,0.26846 0.488977,0.42613 0.772046,0.56689 0.078,0.0388 0.146865,-0.0765 0.06873,-0.11782 -0.281063,-0.14782 -0.604479,-0.30879 -0.764745,-0.59842 -0.158892,-0.28751 -0.16105,-0.67523 -0.221692,-0.99167 -0.01034,-0.0541 -0.06183,-0.0611 -0.09819,-0.0388 -0.0076,-0.0135 -0.02203,-0.024 -0.04289,-0.0258 -0.358987,-0.0319 -0.731227,-0.0468 -1.103809,-0.0476 z" />
    <path
       id="path33"
       style="fill:#100f0d;fill-opacity:1;fill-rule:nonzero;stroke:none;stroke-width:0.0352778"
       d="m 8.147823,255.13481 c -0.338326,0.0151 -0.590839,0.13786 -0.792716,0.45734 -0.04932,0.078 0.07335,0.14874 0.12299,0.0718 0.180093,-0.27834 0.496959,-0.3975 0.820104,-0.38551 0.358563,0.0138 0.593071,0.19494 0.790133,0.48421 0.04837,0.0709 0.164872,0.005 0.116789,-0.0682 -0.225743,-0.3429 -0.488422,-0.54378 -0.906922,-0.55966 -0.05193,-0.002 -0.102046,-0.002 -0.150378,0 z m -0.799434,0.66301 c -0.02472,0.002 -0.04795,0.0161 -0.05684,0.047 -0.128587,0.45014 -0.0612,0.91485 0.324528,1.22318 0.268287,0.21484 0.758746,0.28762 0.998388,-0.0119 0.0054,-0.007 0.0095,-0.0139 0.01189,-0.0212 0.02195,0.003 0.04543,-0.005 0.0615,-0.0279 0.04329,-0.0612 0.07414,-0.12525 0.09302,-0.19172 0.370825,0.64371 1.399002,0.97551 2.060856,0.91416 0.05567,-0.005 0.07836,-0.0599 0.06666,-0.10077 0.07846,0.0116 0.110629,-0.10741 0.02997,-0.12712 -0.39551,-0.0956 -0.75121,-0.28438 -1.03509,-0.5793 -0.289948,-0.30127 -0.374953,-0.67699 -0.597379,-1.01389 -0.04643,-0.0706 -0.15802,-0.007 -0.114205,0.0667 0.235092,0.3937 0.336606,0.79008 0.682646,1.1157 0.249216,0.23442 0.543878,0.40089 0.868164,0.49609 -0.70439,0.005 -1.725214,-0.34616 -1.945101,-1.079 -0.008,-0.0268 -0.02718,-0.0414 -0.04806,-0.0455 -0.04729,-0.0236 -0.121842,0.0152 -0.10542,0.0832 0.03457,0.14393 0.01503,0.27286 -0.06615,0.39739 -0.002,0.003 -0.0038,0.006 -0.0052,0.009 -0.0099,3e-5 -0.02039,0.003 -0.03152,0.009 -0.300955,0.16828 -0.613239,0.20308 -0.884701,-0.0537 -0.295875,-0.28011 -0.337867,-0.64899 -0.236161,-1.02681 0.01404,-0.052 -0.03063,-0.0853 -0.07183,-0.0827 z" />
    <path
       id="path36"
       d="m 8.615173,256.99237 c 0.0018,0 0.0018,-0.003 0,-0.003 -0.0019,0 -0.0019,0.003 0,0.003 v 0"
       style="fill:#100f0d;fill-opacity:1;fill-rule:nonzero;stroke:none;stroke-width:0.0352778" />
    <path
       id="path39"
       style="fill:#100f0d;fill-opacity:1;fill-rule:nonzero;stroke:none;stroke-width:0.0352778"
       d="m 15.884819,255.9265 c -0.07001,-0.002 -0.144413,0.0239 -0.205673,0.0708 -0.160373,0.12277 -0.250454,0.36267 -0.203605,0.55811 0.115888,0.48436 0.691818,0.66822 1.098641,0.40928 0.02179,-0.014 0.02949,-0.0332 0.0279,-0.0517 0.06275,-0.0215 0.117236,-0.0577 0.174667,-0.1018 0.07373,-0.0568 0.01166,-0.17437 -0.07545,-0.12816 -0.127459,0.0674 -0.240161,0.0276 -0.357601,-0.0331 -0.05757,-0.03 -0.209004,-0.10029 -0.19327,-0.18707 0.0032,-0.0176 3.93e-4,-0.0329 -0.0062,-0.045 0.06415,-0.007 0.115659,-0.0587 0.135392,-0.13229 0.0303,-0.11254 -0.0378,-0.20045 -0.125573,-0.26148 -0.03029,-0.0209 -0.06507,-0.006 -0.08372,0.0196 -7.99e-4,-0.005 -0.0027,-0.01 -0.0057,-0.0145 -0.04431,-0.0691 -0.10983,-0.10045 -0.179834,-0.10283 z m 0.0021,0.14883 c 0.03897,-0.002 0.08082,0.004 0.125573,0.0222 0.0169,0.007 0.03338,2.1e-4 0.04444,-0.0119 5.27e-4,0.014 0.0062,0.0278 0.01964,0.0388 0.06354,0.0984 0.05755,0.16192 -0.01809,0.1912 -0.0337,0.0199 -0.02974,0.0606 -0.0047,0.0822 -0.0098,0.007 -0.01782,0.0176 -0.02325,0.032 -0.06103,0.16333 0.09097,0.25963 0.214974,0.33124 0.07297,0.0422 0.147415,0.075 0.222725,0.0915 -0.0031,0.0105 -0.0044,0.0219 -0.0031,0.0326 -0.275788,0.10343 -0.60042,0.0719 -0.772046,-0.18965 -0.08146,-0.12382 -0.108855,-0.2556 -0.05788,-0.39636 0.04601,-0.127 0.134747,-0.21666 0.251665,-0.22376 z" />
    <path
       id="path45"
       style="fill:#100f0d;fill-opacity:1;fill-rule:nonzero;stroke:none;stroke-width:0.0352778"
       d="m 24.413497,255.2392 c -0.250979,0.009 -0.512803,0.0649 -0.788582,0.18242 -0.06547,0.0279 -0.01815,0.14254 0.04909,0.11679 2.200592,-0.84702 3.41218,2.10998 5.522144,2.13785 0.08608,0.001 0.08537,-0.12909 0,-0.13332 -1.798063,-0.0846 -3.0258,-2.36484 -4.782652,-2.30374 z m -1.153418,0.43047 c -0.266356,0.0137 -0.40183,0.44151 -0.465088,0.65887 -0.09924,0.34184 -0.0712,0.68675 0.104903,0.99684 0.04466,0.079 0.165678,0.008 0.12144,-0.0708 -0.230823,-0.41134 -0.179935,-1.23869 0.288871,-1.49551 0.04396,-0.024 0.02161,-0.0873 -0.02429,-0.0894 -0.0089,-4.5e-4 -0.01725,-4.5e-4 -0.02584,0 z m 1.378727,0.34829 c -0.02516,-1.4e-4 -0.05044,7.5e-4 -0.07545,0.003 -0.06284,0.006 -0.07292,0.0916 -0.02532,0.11111 -0.05631,-0.0135 -0.113666,-0.0213 -0.173633,-0.0207 -0.07511,7e-4 -0.09811,0.12321 -0.0186,0.13591 0.115359,0.0176 0.223177,0.0368 0.331762,0.0817 0.07373,0.0303 0.128468,-0.0976 0.05478,-0.12971 -0.05928,-0.0258 -0.118927,-0.0479 -0.179833,-0.0636 0.0034,3.7e-4 0.0071,1.9e-4 0.01085,0 0.31877,-0.0173 0.698063,0.20802 0.879532,0.46767 0.230152,0.32914 0.288212,0.65183 0.08578,1.00355 -0.02452,0.0427 0.02759,0.10551 0.07183,0.0723 0.348897,-0.26211 0.199881,-0.76407 0.0016,-1.07487 -0.197197,-0.30857 -0.585872,-0.58437 -0.963298,-0.58653 z m 0.235128,0.35399 c -0.03525,0.003 -0.06673,0.0472 -0.04754,0.0858 0.220098,0.44485 0.141431,0.96312 -0.323495,1.21853 -0.389431,0.21414 -0.918636,0.13582 -1.21698,-0.1912 -0.04424,-0.0483 -0.126477,0.0145 -0.09095,0.0703 0.294922,0.46425 1.03174,0.47861 1.459342,0.20309 0.43695,-0.28187 0.610771,-0.95353 0.259933,-1.36839 -0.01217,-0.0143 -0.02651,-0.0193 -0.04031,-0.0181 z m 1.293978,0.1664 c -0.04635,0.005 -0.0835,0.0622 -0.03876,0.10025 0.305505,0.2607 0.43472,0.58166 0.507463,0.96583 0.01266,0.067 0.117729,0.05 0.117306,-0.016 -0.0022,-0.4004 -0.238313,-0.78637 -0.538986,-1.03508 -0.01482,-0.0123 -0.03158,-0.0167 -0.04703,-0.015 z" />
    <path
       id="path47"
       style="fill:#100f0d;fill-opacity:1;fill-rule:nonzero;stroke:none;stroke-width:0.0352778"
       d="m 32.06626,254.39894 c -0.05191,0.003 -0.07451,0.0499 -0.0677,0.0894 -0.02197,-7.9e-4 -0.04475,-0.001 -0.0677,-5.1e-4 -0.08255,0.002 -0.08184,0.12392 0,0.12815 0.235656,0.15946 0.471277,0.31924 0.706933,0.47904 0.01588,0.10407 0.03167,0.20822 0.04754,0.31265 0.01094,0.14993 0.0065,0.31102 -0.0062,0.46095 -0.04516,0.52811 -0.229586,0.96612 -0.701249,1.24799 -0.647348,0.38699 -1.454997,0.47146 -2.191597,0.44183 -0.08326,-0.004 -0.08184,0.12303 0,0.12867 0.45922,0.0315 1.032902,0.008 1.557527,-0.13384 0.93278,-0.0505 1.564179,-0.53272 2.022616,-1.35444 0.03316,-0.0593 -0.0615,-0.1132 -0.09043,-0.0532 -0.178506,0.36935 -0.539361,0.79047 -0.898136,0.98908 -0.120645,0.0667 -0.244467,0.11344 -0.371037,0.14883 0.297132,-0.17398 0.539884,-0.41282 0.680062,-0.73587 0.269709,-0.62227 0.284336,-1.73898 -0.399976,-2.00298 0.451654,0.0379 0.919583,0.27414 0.990121,0.75913 0.01058,0.0734 0.136057,0.0569 0.129707,-0.0176 -0.05574,-0.63642 -0.778864,-0.91939 -1.340486,-0.88729 z m 1.342037,1.09916 c -0.02889,0.002 -0.05602,0.0228 -0.05684,0.0605 -0.0035,0.14676 -0.05248,0.2889 -0.04754,0.4346 0.0014,0.0437 0.05353,0.0524 0.07752,0.0207 0.09454,-0.12665 0.09633,-0.30216 0.09457,-0.45527 -3.75e-4,-0.0429 -0.03496,-0.0632 -0.0677,-0.0605 z" />
    <path
       id="path48"
       style="fill:#100f0d;fill-opacity:1;fill-rule:nonzero;stroke:none;stroke-width:0.0352778"
       d="m 34.528642,255.03715 c -0.07357,-0.002 -0.156476,0.0279 -0.249081,0.0997 -0.05927,0.0462 0.0201,0.15041 0.08113,0.1049 0.269169,-0.0367 0.412991,0.0653 0.430982,0.30593 0.03351,0.16933 0.0289,0.33799 -0.01344,0.50591 -0.05362,0.22578 -0.165773,0.41942 -0.310059,0.59686 -0.21883,0.27046 -0.496662,0.44653 -0.782898,0.62012 0.405715,-0.51316 0.605017,-1.30181 0.574642,-1.8681 -0.0042,-0.0773 -0.111447,-0.0755 -0.118855,0 -0.07056,0.72813 -0.284809,1.78202 -1.002007,2.15491 -0.07796,0.0406 -0.0096,0.15733 0.06873,0.11782 h 5.17e-4 c 0.06443,-0.0324 0.125718,-0.0707 0.184485,-0.11472 0.01617,0.008 0.03617,0.01 0.05736,0.001 0.676275,-0.28716 1.404891,-0.84244 1.5012,-1.62419 0.0364,-0.29495 -0.103888,-0.8922 -0.422713,-0.90021 z" />
    <path
       id="path54"
       style="fill:#100f0d;fill-opacity:1;fill-rule:nonzero;stroke:none;stroke-width:0.0352778"
       d="m 30.848763,254.61237 c -0.327101,-0.006 -0.785864,0.19782 -0.732772,0.54725 0.0078,0.0505 0.0739,0.0356 0.08837,0 0.194733,-0.47484 0.726226,-0.48797 1.079004,-0.20257 0.249767,0.20249 0.412928,0.46665 0.499711,0.77463 0.02364,0.0825 0.15231,0.0472 0.128674,-0.0357 -0.124883,-0.44379 -0.45404,-0.95103 -0.932759,-1.06815 -0.03947,-0.01 -0.0835,-0.0146 -0.130225,-0.0155 z m -0.673344,0.78961 c -0.03716,5.3e-4 -0.07775,0.0338 -0.06201,0.0754 0.09137,0.24236 0.271884,0.46062 0.541053,0.50436 0.186343,0.03 0.419168,-0.037 0.528133,-0.19792 0.203616,0.20323 0.06545,0.71438 -0.09715,0.89142 -0.184503,0.20144 -0.459348,0.27947 -0.711584,0.35708 -0.08537,0.0265 -0.04922,0.15941 0.03721,0.13436 0.02369,-0.007 0.04709,-0.0144 0.0708,-0.0217 -0.0051,0.0363 0.01492,0.0742 0.0615,0.0687 0.36195,-0.0413 0.772915,-0.14424 1.037146,-0.41341 0.182033,-0.18521 0.482419,-0.5975 0.35295,-0.86455 -0.02258,-0.0466 -0.08535,-0.0189 -0.08888,0.0238 -0.05038,0.59072 -0.536712,0.94304 -1.064535,1.07745 0.232223,-0.10323 0.433352,-0.25236 0.534851,-0.50797 0.09878,-0.24765 0.172473,-0.65916 -0.0646,-0.84543 -0.0072,-0.006 -0.01456,-0.01 -0.02222,-0.0119 -0.0059,-0.0458 -0.07033,-0.0724 -0.106453,-0.0357 -0.138289,0.14217 -0.278038,0.24832 -0.49041,0.19223 -0.197203,-0.0519 -0.33009,-0.21872 -0.40876,-0.39687 -0.0092,-0.0212 -0.02756,-0.0297 -0.04703,-0.0295 z" />
    <path
       id="path58"
       style="fill:#100f0d;fill-opacity:1;fill-rule:nonzero;stroke:none;stroke-width:0.0352778"
       d="m 40.416654,255.96215 c -0.372621,7.5e-4 -0.745197,0.0156 -1.104325,0.0476 -0.02071,0.002 -0.03529,0.0124 -0.04289,0.0258 -0.03637,-0.0224 -0.08771,-0.0155 -0.09819,0.0388 -0.05997,0.31468 -0.06313,0.70557 -0.221175,0.99167 -0.160514,0.28999 -0.483811,0.45025 -0.765328,0.59841 -0.07796,0.0409 -0.0093,0.15663 0.06873,0.11783 0.283986,-0.14111 0.587191,-0.29843 0.772046,-0.56689 0.211314,-0.30692 0.227875,-0.74732 0.280086,-1.10433 0.0021,4.1e-4 0.0044,8.2e-4 0.0067,0.001 0.718256,0.0635 1.490206,0.0596 2.209168,0.009 0.0075,-5.1e-4 0.0141,-0.002 0.02015,-0.004 -0.0043,0.008 -0.0075,0.0174 -0.0083,0.0284 -0.05045,0.71896 -0.05365,1.49092 0.0098,2.20917 2.13e-4,0.002 6.13e-4,0.005 10e-4,0.007 -0.359803,0.0525 -0.795854,0.0679 -1.104842,0.27957 -0.268464,0.1838 -0.426132,0.48912 -0.56689,0.77205 -0.03881,0.0783 0.07689,0.14704 0.117822,0.0687 0.147814,-0.28152 0.309464,-0.6043 0.599447,-0.76481 0.287162,-0.15911 0.675228,-0.16086 0.99167,-0.22118 0.05384,-0.0105 0.0605,-0.0623 0.03824,-0.0987 0.01341,-0.008 0.02353,-0.0216 0.02532,-0.0424 0.06385,-0.71825 0.06064,-1.48985 0.0098,-2.20916 -0.0033,-0.049 -0.04847,-0.0671 -0.08268,-0.0543 0.01909,-0.0346 0.0024,-0.0868 -0.05064,-0.0904 -0.359481,-0.0254 -0.732221,-0.039 -1.104843,-0.0382 z" />
    <path
       id="path60"
       style="fill:#100f0d;fill-opacity:1;fill-rule:nonzero;stroke:none;stroke-width:0.0352778"
       d="m 37.188428,255.1343 c -0.04823,-0.002 -0.09822,-0.002 -0.149862,5.1e-4 -0.420158,0.0173 -0.679379,0.21359 -0.906921,0.55966 -0.04798,0.0727 0.06795,0.13912 0.116272,0.0682 0.198967,-0.2921 0.427641,-0.4708 0.790649,-0.4842 0.331258,-0.012 0.635791,0.10152 0.819588,0.3855 0.04974,0.0769 0.172896,0.006 0.123507,-0.0718 -0.199716,-0.31578 -0.455633,-0.44286 -0.793233,-0.45785 z m 0.793233,0.66352 c -0.03932,8.9e-4 -0.07904,0.0333 -0.06563,0.0827 0.1016,0.37747 0.05911,0.74705 -0.236161,1.02681 -0.271992,0.25788 -0.582206,0.22237 -0.884184,0.0537 -0.01105,-0.006 -0.02215,-0.009 -0.03204,-0.009 -0.0014,-0.003 -0.0027,-0.006 -0.0046,-0.009 -0.08079,-0.12383 -0.101588,-0.25346 -0.06666,-0.39739 0.01621,-0.068 -0.05814,-0.1069 -0.10542,-0.0832 -0.02086,0.004 -0.03949,0.0186 -0.04754,0.0455 -0.219779,0.73238 -1.243099,1.08351 -1.945101,1.07901 0.324377,-0.0951 0.618424,-0.26143 0.867647,-0.4961 0.34537,-0.32455 0.448402,-0.72305 0.682646,-1.11569 0.0441,-0.0737 -0.06712,-0.13722 -0.113688,-0.0667 -0.22225,0.33619 -0.307749,0.71297 -0.59738,1.01389 -0.28328,0.29421 -0.640485,0.48369 -1.035596,0.57929 -0.08067,0.0194 -0.0486,0.13901 0.02997,0.12712 -0.01178,0.0408 0.0113,0.0954 0.06718,0.10077 0.663252,0.0614 1.689796,-0.26982 2.060339,-0.91364 0.01882,0.0664 0.05022,0.13008 0.09354,0.19121 0.01604,0.0227 0.03903,0.0304 0.06098,0.0279 0.0024,0.007 0.0065,0.0145 0.01189,0.0212 0.240594,0.30021 0.728865,0.22567 0.998388,0.0119 0.386644,-0.30585 0.453456,-0.7748 0.325045,-1.22318 -0.0096,-0.0335 -0.03666,-0.0476 -0.06356,-0.047 z" />
    <path
       id="path63"
       d="m 36.721369,256.99237 c 0.0021,0 0.0021,-0.003 0,-0.003 -0.0021,0 -0.0021,0.003 0,0.003 v 0"
       style="fill:#100f0d;fill-opacity:1;fill-rule:nonzero;stroke:none;stroke-width:0.0352778" />
    <path
       id="path66"
       style="fill:#100f0d;fill-opacity:1;fill-rule:nonzero;stroke:none;stroke-width:0.0352778"
       d="m 29.464868,255.92598 c -0.07444,-0.002 -0.145821,0.0289 -0.19327,0.10335 -0.003,0.005 -0.0049,0.01 -0.0057,0.015 -0.01845,-0.026 -0.05276,-0.0413 -0.0832,-0.0202 -0.08784,0.061 -0.155913,0.14859 -0.125574,0.26148 0.01971,0.0731 0.07064,0.1249 0.134876,0.13229 -0.0066,0.0121 -0.0094,0.0273 -0.0062,0.045 0.01552,0.0868 -0.135414,0.15708 -0.193269,0.18707 -0.117475,0.0607 -0.229895,0.10045 -0.357601,0.0331 -0.08714,-0.0462 -0.148663,0.0714 -0.07493,0.12816 0.05745,0.0441 0.111482,0.0803 0.174149,0.1018 -0.0016,0.0185 0.0066,0.0376 0.02842,0.0517 0.4064,0.25858 0.982414,0.0751 1.098125,-0.40928 0.04586,-0.19085 -0.03775,-0.4109 -0.183452,-0.54002 -0.0605,-0.0536 -0.137954,-0.0877 -0.21239,-0.0894 z m -0.02997,0.14831 c 0.104874,-5.1e-4 0.19038,0.0648 0.24753,0.17725 0.07726,0.15275 0.05175,0.30526 -0.03927,0.4439 -0.171484,0.26188 -0.496108,0.29336 -0.772046,0.18966 0.0013,-0.0107 5.88e-4,-0.022 -0.0026,-0.0326 0.07535,-0.0164 0.149658,-0.0493 0.222726,-0.0915 0.123825,-0.0716 0.276358,-0.16685 0.214974,-0.33124 -0.0055,-0.0145 -0.01392,-0.0249 -0.02377,-0.032 0.02519,-0.0215 0.02936,-0.0623 -0.0041,-0.0822 -0.07585,-0.0293 -0.0821,-0.0928 -0.0186,-0.1912 0.01341,-0.0109 0.0192,-0.0251 0.01964,-0.0393 0.01102,0.0122 0.02738,0.0192 0.04444,0.0124 0.03898,-0.0155 0.07615,-0.0231 0.111104,-0.0233 z" />
    <path
       id="path72"
       style="fill:#100f0d;fill-opacity:1;fill-rule:nonzero;stroke:none;stroke-width:0.0352778"
       d="m 22.631694,253.51476 c -0.01336,0.001 -0.02693,0.007 -0.03927,0.0191 -0.159703,0.15628 -0.463246,0.3893 -0.499194,0.62425 -0.0056,0.0363 0.03225,0.0811 0.07028,0.0543 0.100048,-0.0706 0.158244,-0.18627 0.237195,-0.27905 0.08527,-0.10067 0.17598,-0.19645 0.267684,-0.29094 0.155435,0.16288 0.27053,0.36455 0.429431,0.51831 0.01449,0.014 0.03359,0.0176 0.05116,0.014 -0.0058,0.005 -0.01104,0.0118 -0.0155,0.0202 -0.167044,0.31309 -0.316564,0.63936 -0.495069,0.9462 -0.164317,-0.28568 -0.295997,-0.58889 -0.467671,-0.87024 -0.04159,-0.0681 -0.138745,-0.009 -0.105937,0.0615 0.148414,0.31997 0.300074,0.64074 0.480591,0.94413 0.02256,0.0379 0.06225,0.0422 0.09353,0.0279 0.03095,0.0136 0.06967,0.009 0.09198,-0.0284 0.193605,-0.32314 0.360344,-0.67186 0.516765,-1.01441 0.0255,-0.0557 -0.02601,-0.10681 -0.07131,-0.0997 0.01565,-0.0127 0.02415,-0.0329 0.01654,-0.0563 -0.07126,-0.21872 -0.287339,-0.42022 -0.452686,-0.57051 -0.02296,-0.0208 -0.04951,-0.0212 -0.0708,-0.0103 -0.01125,-0.007 -0.02437,-0.0108 -0.03772,-0.01 z" />
    <path
       id="path76"
       style="fill:#100f0d;fill-opacity:1;fill-rule:nonzero;stroke:none;stroke-width:0.0352778"
       d="m 4.446757,275.09432 c -0.127384,1.5e-4 -0.256003,0.0199 -0.383439,0.0579 -0.222144,0.0663 -0.673325,0.20835 -0.659391,0.49093 0.0022,0.0459 0.06596,0.0686 0.08992,0.0248 0.256752,-0.46885 1.085271,-0.51992 1.495516,-0.28991 0.07909,0.0444 0.149464,-0.0766 0.0708,-0.12144 -0.192595,-0.10936 -0.401092,-0.16251 -0.613399,-0.16226 z m 0.811837,0.44907 c -0.04402,0.003 -0.07849,0.0636 -0.03876,0.0997 0.329071,0.30021 0.401635,0.82488 0.191203,1.21646 -0.250507,0.46673 -0.777699,0.54203 -1.21853,0.32401 -0.0532,-0.0265 -0.119098,0.0441 -0.0677,0.0879 0.415608,0.35172 1.084806,0.17559 1.367875,-0.26045 0.276825,-0.4265 0.260732,-1.16461 -0.202572,-1.45882 -0.01033,-0.007 -0.02136,-0.009 -0.03152,-0.009 z m -2.057756,0.40721 c -0.01866,0.001 -0.03557,0.0112 -0.04444,0.032 -0.939553,2.20451 2.02421,3.51967 2.120801,5.57072 0.004,0.0857 0.134936,0.0864 0.133842,0 -0.02797,-2.1075 -2.985038,-3.32258 -2.138371,-5.52215 0.01751,-0.0458 -0.03078,-0.0833 -0.07183,-0.0806 z m 0.720886,0.7028 c -0.03631,6e-5 -0.07559,0.0256 -0.07596,0.0682 -6.47e-4,0.0601 0.0071,0.11768 0.02067,0.17415 -0.01907,-0.0479 -0.104674,-0.0383 -0.110588,0.0248 -0.03775,0.39934 0.254121,0.82879 0.58291,1.03869 0.311044,0.19826 0.813414,0.34734 1.075387,-0.002 0.0332,-0.0441 -0.02977,-0.0962 -0.07235,-0.0718 -0.351931,0.2025 -0.675284,0.14459 -1.004073,-0.0858 -0.259751,-0.18168 -0.484888,-0.56062 -0.467672,-0.87953 2.15e-4,-0.004 4.18e-4,-0.008 0,-0.0114 0.0157,0.0611 0.03777,0.12087 0.06356,0.18035 0.03196,0.0727 0.16081,0.0197 0.130225,-0.0548 -0.04452,-0.1083 -0.06373,-0.21676 -0.08165,-0.33176 -0.0054,-0.0346 -0.03222,-0.0497 -0.06046,-0.0496 z m 0.409795,1.81281 c -0.04275,0.002 -0.08081,0.061 -0.04393,0.10542 0.249025,0.30092 0.635404,0.53703 1.035595,0.5395 0.06544,0 0.0833,-0.10461 0.0155,-0.11731 -0.384316,-0.073 -0.705376,-0.20231 -0.965832,-0.50746 -0.01271,-0.0149 -0.02709,-0.0207 -0.04134,-0.0202 z" />
    <path
       id="path78"
       style="fill:#100f0d;fill-opacity:1;fill-rule:nonzero;stroke:none;stroke-width:0.0352778"
       d="m 5.347994,282.08149 c -0.02962,0.002 -0.0569,0.023 -0.05529,0.062 0.02925,0.73484 -0.05558,1.54531 -0.441833,2.1916 -0.255763,0.42792 -0.662368,0.64142 -1.149801,0.69504 -0.535764,0.0593 -1.307443,0.0711 -1.350305,-0.74207 -0.0044,-0.0819 -0.126077,-0.0829 -0.128158,0 -5.43e-4,0.0229 -2.71e-4,0.0453 5.17e-4,0.0672 -0.03951,-0.007 -0.08696,0.0161 -0.08992,0.0682 -0.03224,0.56198 0.251284,1.28458 0.887801,1.33997 0.07345,0.007 0.09144,-0.11861 0.01757,-0.12919 -0.485107,-0.0705 -0.721233,-0.53844 -0.759127,-0.99012 0.263855,0.68413 1.380003,0.66663 2.002462,0.39998 0.329113,-0.14091 0.570957,-0.39008 0.745691,-0.69505 -0.0361,0.13312 -0.08494,0.26267 -0.15813,0.38602 -0.213889,0.36054 -0.610803,0.7154 -0.989087,0.89814 -0.06008,0.0289 -0.0068,0.12359 0.05271,0.0904 0.822089,-0.4585 1.304018,-1.08857 1.35444,-2.02262 0.14193,-0.52581 0.165392,-1.10071 0.133842,-1.55753 -0.0029,-0.0435 -0.03982,-0.0646 -0.07338,-0.062 z m -1.620573,3.57963 c -0.145521,-0.005 -0.287844,0.044 -0.434599,0.0475 -0.08047,0.002 -0.08061,0.12383 0,0.12454 0.153811,0.002 0.328234,3.3e-4 0.45527,-0.0946 0.03186,-0.024 0.02332,-0.0761 -0.020671,-0.0775 z" />
    <path
       id="path79"
       style="fill:#100f0d;fill-opacity:1;fill-rule:nonzero;stroke:none;stroke-width:0.0352778"
       d="m 5.34541,285.46165 c -0.02043,-1e-4 -0.04053,0.0101 -0.05323,0.0346 -0.373592,0.7179 -1.426161,0.93145 -2.155424,1.002 -0.07525,0.007 -0.07758,0.11462 0,0.11886 0.566568,0.0304 1.35551,-0.16877 1.86862,-0.57464 -0.173628,0.28639 -0.349743,0.56422 -0.620117,0.78341 -0.177765,0.14393 -0.371355,0.25592 -0.59738,0.30954 -0.16771,0.0423 -0.336261,0.0466 -0.505912,0.0134 -0.240453,-0.0183 -0.34192,-0.16181 -0.305408,-0.43098 0.04494,-0.0603 -0.05848,-0.14075 -0.104903,-0.0811 -0.383646,0.49389 0.438108,0.71483 0.799952,0.67179 0.781086,-0.0931 1.338264,-0.82739 1.62419,-1.5012 0.009,-0.0211 0.0071,-0.0412 -10e-4,-0.0574 0.0441,-0.0588 0.08285,-0.1205 0.115239,-0.185 0.0269,-0.0536 -0.01966,-0.10314 -0.0646,-0.10335 z" />
    <path
       id="path85"
       style="fill:#100f0d;fill-opacity:1;fill-rule:nonzero;stroke:none;stroke-width:0.0352778"
       d="m 3.189469,282.467 c -0.04983,0.005 -0.07749,0.0889 -0.02325,0.11265 0.178329,0.0787 0.345088,0.21139 0.396875,0.40824 0.05609,0.21238 -0.05031,0.35264 -0.192236,0.49093 -0.0369,0.0361 -0.01012,0.10044 0.03566,0.10645 0.0022,0.008 0.0061,0.0154 0.01189,0.0227 0.185738,0.23601 0.598495,0.16215 0.84491,0.0641 0.255417,-0.10141 0.405078,-0.30316 0.508496,-0.53588 -0.134057,0.52823 -0.486554,1.01515 -1.077454,1.06557 -0.04272,0.004 -0.07048,0.0663 -0.02377,0.0889 0.267193,0.12947 0.678399,-0.17127 0.86403,-0.35295 0.268993,-0.26388 0.371783,-0.6752 0.413411,-1.03715 0.0053,-0.0466 -0.03185,-0.0666 -0.06821,-0.0615 0.0073,-0.0237 0.01424,-0.0472 0.02119,-0.0708 0.02536,-0.0861 -0.1079,-0.12258 -0.134359,-0.0372 -0.07687,0.25047 -0.153437,0.5299 -0.356567,0.71158 -0.184228,0.16467 -0.685871,0.30429 -0.891419,0.0971 0.160679,-0.10898 0.227577,-0.34182 0.197404,-0.52813 -0.04353,-0.26917 -0.261452,-0.44985 -0.503845,-0.54157 -0.0078,-0.003 -0.01562,-0.004 -0.02274,-0.003 z m -0.367936,0.002 c -0.35156,0.018 -0.531217,0.57079 -0.458887,0.86713 0.117122,0.47836 0.624428,0.80787 1.068152,0.93276 0.08283,0.0236 0.117972,-0.1054 0.03514,-0.12868 -0.307975,-0.0868 -0.571831,-0.24994 -0.774113,-0.49971 -0.285539,-0.35278 -0.272396,-0.88427 0.202055,-1.079 0.03612,-0.0148 0.05073,-0.0811 0,-0.0889 -0.02494,-0.004 -0.04891,-0.005 -0.07235,-0.004 z" />
    <path
       id="path89"
       style="fill:#100f0d;fill-opacity:1;fill-rule:nonzero;stroke:none;stroke-width:0.0352778"
       d="m 5.45238,290.50733 c -0.02039,-6e-5 -0.04035,0.0101 -0.05323,0.0346 -0.147849,0.28117 -0.309264,0.60465 -0.59893,0.76481 -0.287478,0.15911 -0.675265,0.16102 -0.991671,0.22169 -0.05405,0.0102 -0.061,0.0619 -0.03876,0.0982 -0.01347,0.008 -0.02396,0.0221 -0.02584,0.0429 h 5.16e-4 c -0.06354,0.71791 -0.06064,1.49021 -0.0098,2.20917 0.0016,0.0229 0.01244,0.0386 0.02687,0.0481 -0.01434,0.0343 0.0037,0.0813 0.05374,0.0847 0.718926,0.0508 1.490677,0.054 2.208651,-0.01 0.02086,-0.002 0.0353,-0.0118 0.04289,-0.0253 0.03636,0.0224 0.08784,0.0155 0.09819,-0.0388 0.06022,-0.31432 0.06364,-0.70557 0.221692,-0.99167 0.160408,-0.28963 0.483259,-0.4506 0.764811,-0.59841 0.07814,-0.0413 0.0093,-0.15663 -0.06873,-0.11782 -0.283881,0.14111 -0.587261,0.29842 -0.772046,0.56689 -0.211385,0.30691 -0.227465,0.74731 -0.27957,1.10432 -0.0022,-4.1e-4 -0.0049,-8.3e-4 -0.0072,-10e-4 -0.704938,-0.0624 -1.46152,-0.0604 -2.169377,-0.0119 6.02e-4,-0.003 7.98e-4,-0.006 0.001,-0.009 0.05087,-0.71896 0.05449,-1.49091 -0.0093,-2.20916 -2.05e-4,-0.002 -6.26e-4,-0.005 -10e-4,-0.007 h 5.17e-4 c 0.359657,-0.0525 0.795221,-0.0684 1.104325,-0.28008 0.268569,-0.1838 0.426203,-0.48912 0.566891,-0.77205 0.02663,-0.0539 -0.01973,-0.10322 -0.0646,-0.10335 z" />
    <path
       id="path91"
       style="fill:#100f0d;fill-opacity:1;fill-rule:nonzero;stroke:none;stroke-width:0.0352778"
       d="M 5.2937337 286.70808 C 5.2683337 286.70804 5.2438261 286.72199 5.2358561 286.75459 C 5.1400761 287.15041 4.9517683 287.50672 4.6565633 287.7907 C 4.3553263 288.08069 3.9798445 288.16583 3.6431885 288.38808 C 3.5726285 288.43468 3.6360911 288.54587 3.7098511 288.50177 C 4.1037271 288.26682 4.5000372 288.1652 4.8255452 287.81912 C 5.0601092 287.56969 5.2261002 287.27514 5.3211222 286.95044 C 5.3261222 287.65497 4.9752623 288.67637 4.2421183 288.89658 C 4.2153716 288.90461 4.201243 288.92333 4.1971598 288.94412 C 4.1735824 288.9915 4.2118088 289.066 4.2798421 289.04954 C 4.4238461 289.01494 4.5531857 289.03489 4.6777507 289.11569 C 4.6806834 289.11761 4.6836432 289.11895 4.6865356 289.12034 C 4.6864583 289.13042 4.6889713 289.14155 4.6953206 289.15289 C 4.8635596 289.45381 4.8989869 289.7658 4.6420939 290.03708 C 4.3618119 290.33306 3.9924864 290.37485 3.6147664 290.27324 C 3.5315464 290.25104 3.4964217 290.37879 3.5791097 290.40243 C 4.0291837 290.53119 4.4941266 290.46293 4.8028076 290.07738 C 5.0176496 289.80892 5.090227 289.31889 4.790922 289.079 C 4.78423 289.07363 4.7771316 289.07007 4.7697347 289.06763 C 4.7722659 289.04566 4.7646135 289.02221 4.7418294 289.00613 C 4.6806728 288.96293 4.6165102 288.9315 4.5501099 288.9126 C 5.1937169 288.54178 5.525189 287.51379 5.4637492 286.85174 C 5.4584492 286.79594 5.4038091 286.77318 5.3629801 286.78508 C 5.3700801 286.73848 5.3308537 286.70818 5.2937337 286.70808 z M 3.4618042 288.47748 C 3.4511942 288.47789 3.4401813 288.48145 3.4287313 288.48885 C 3.0862893 288.71428 2.8850565 288.97686 2.8690755 289.39526 C 2.8533455 289.81083 2.9620157 290.1078 3.3269287 290.33887 C 3.4050687 290.38787 3.475526 290.26507 3.398759 290.21536 C 3.120382 290.03544 3.0011528 289.7184 3.0132528 289.39526 C 3.0269028 289.03648 3.2081252 288.80197 3.4969442 288.60512 C 3.5570742 288.56402 3.5190742 288.47528 3.4618042 288.47748 z " />
    <path
       id="path94"
       d="m 4.72541,289.07998 c 0.0019,0 0.0019,-0.003 0,-0.003 -0.0018,0 -0.0021,0.003 0,0.003 v 0"
       style="fill:#100f0d;fill-opacity:1;fill-rule:nonzero;stroke:none;stroke-width:0.0352778" />
    <path
       id="path97"
       style="fill:#100f0d;fill-opacity:1;fill-rule:nonzero;stroke:none;stroke-width:0.0352778"
       d="m 4.48138,280.88415 c -0.05019,4e-5 -0.0959,0.0479 -0.06408,0.108 0.06752,0.12735 0.02782,0.24013 -0.03307,0.3576 -0.02978,0.0575 -0.09987,0.20879 -0.186552,0.19327 -0.01774,-0.003 -0.03337,-4.4e-4 -0.04548,0.006 -0.0072,-0.0643 -0.05883,-0.11516 -0.132291,-0.13487 -0.112466,-0.0303 -0.200417,0.0377 -0.261483,0.12557 -0.02094,0.0303 -0.0056,0.0645 0.02015,0.0832 -0.0051,8.5e-4 -0.0104,0.003 -0.01499,0.006 -0.138359,0.0885 -0.125875,0.26309 -0.03204,0.38551 0.123085,0.16051 0.362972,0.25017 0.558622,0.2036 0.484117,-0.11606 0.667841,-0.69137 0.408761,-1.09812 -0.01392,-0.0218 -0.03319,-0.0301 -0.05168,-0.0284 -0.02147,-0.0627 -0.05702,-0.11671 -0.101286,-0.17415 -0.01779,-0.023 -0.04178,-0.0331 -0.0646,-0.0331 z m 0.105937,0.34158 c 0.01053,0.003 0.0214,0.004 0.03204,0.003 0.103439,0.27572 0.07228,0.60051 -0.189135,0.77204 -0.124002,0.0815 -0.255671,0.10904 -0.396359,0.0579 -0.16951,-0.061 -0.272998,-0.19838 -0.202055,-0.37723 0.0067,-0.0169 5.23e-4,-0.0329 -0.01137,-0.0439 0.01392,-5.9e-4 0.02742,-0.007 0.03824,-0.0202 0.09839,-0.0635 0.161993,-0.0574 0.191203,0.0181 0.01985,0.0339 0.06073,0.0295 0.08217,0.004 0.0071,0.01 0.01801,0.0184 0.03256,0.0238 0.163159,0.0614 0.259221,-0.0906 0.330729,-0.21446 0.04217,-0.0731 0.07559,-0.14733 0.09198,-0.22273 z" />
    <path
       id="path103"
       style="fill:#100f0d;fill-opacity:1;fill-rule:nonzero;stroke:none;stroke-width:0.0352778"
       d="m 5.339726,268.43323 c -0.03095,0.003 -0.06066,0.0241 -0.06253,0.0641 -0.09673,2.05493 -3.061024,3.36496 -2.120801,5.57123 0.02812,0.0653 0.142025,0.0183 0.116272,-0.0491 -0.84709,-2.20062 2.110396,-3.41218 2.138371,-5.52214 5.85e-4,-0.0459 -0.03624,-0.0671 -0.07131,-0.0641 z m -0.01654,2.50682 c -0.400191,0.002 -0.78657,0.23842 -1.035595,0.53899 -0.0489,0.0589 0.03444,0.14488 0.08527,0.0853 0.260738,-0.30551 0.581657,-0.43444 0.965832,-0.50747 0.0671,-0.0127 0.05065,-0.11714 -0.0155,-0.11679 z m -0.355017,0.9431 c -0.219194,6e-4 -0.454615,0.0967 -0.629419,0.20825 -0.329071,0.21026 -0.620657,0.63865 -0.58291,1.0387 0.0059,0.0628 0.09146,0.0727 0.110588,0.0248 -0.01352,0.0564 -0.02131,0.11409 -0.02067,0.17415 6.7e-4,0.0751 0.124043,0.098 0.136426,0.0186 0.01792,-0.11536 0.03699,-0.22295 0.08165,-0.33125 0.0303,-0.0737 -0.09798,-0.12902 -0.130225,-0.0553 -0.0258,0.0595 -0.04786,0.11921 -0.06356,0.18035 4.15e-4,-0.004 2.15e-4,-0.007 0,-0.0114 -0.01722,-0.31856 0.207921,-0.6982 0.467672,-0.87953 0.328789,-0.23001 0.652142,-0.28812 1.004073,-0.0853 0.04258,0.024 0.105547,-0.0283 0.07235,-0.0724 -0.114737,-0.1528 -0.275483,-0.21027 -0.445968,-0.20981 z m -0.302307,0.709 c -0.193613,-0.002 -0.385504,0.056 -0.541052,0.18758 -0.05098,0.043 0.01398,0.11431 0.0677,0.0879 0.444959,-0.22013 0.96319,-0.14146 1.21853,0.3235 0.214031,0.38946 0.136104,0.91853 -0.191203,1.21698 -0.04851,0.0441 0.01461,0.12622 0.07028,0.091 0.464397,-0.29528 0.478162,-1.03178 0.202572,-1.45934 -0.176146,-0.27319 -0.504134,-0.44385 -0.826823,-0.44752 z m -1.210779,1.76733 c -0.0247,-1.7e-4 -0.04979,0.0191 -0.05116,0.0475 -0.01393,0.28399 0.434919,0.42618 0.659391,0.49144 0.34163,0.0991 0.686781,0.0716 0.996838,-0.10438 0.07867,-0.0448 0.0083,-0.16554 -0.0708,-0.12144 -0.41148,0.23071 -1.238764,0.17945 -1.495516,-0.28939 -0.009,-0.0164 -0.02394,-0.0237 -0.03876,-0.0238 z" />
    <path
       id="path105"
       style="fill:#100f0d;fill-opacity:1;fill-rule:nonzero;stroke:none;stroke-width:0.0352778"
       d="m 3.285588,264.21746 c -0.0732,0.008 -0.07072,0.12335 0.0072,0.12506 0.146755,0.003 0.289078,0.0516 0.434599,0.047 0.04371,-0.001 0.05253,-0.0534 0.02067,-0.077 -0.126648,-0.0949 -0.301883,-0.0968 -0.45527,-0.0951 -0.0025,2e-5 -0.0049,-2.6e-4 -0.0072,0 z m -0.257866,0.0693 c -0.0022,-4e-5 -0.0044,3.1e-4 -0.0067,5.2e-4 -0.636376,0.0554 -0.919763,0.77834 -0.887801,1.33997 0.0029,0.0521 0.0504,0.0751 0.08992,0.0682 -7.86e-4,0.0219 -0.0011,0.0443 -5.17e-4,0.0672 0.0019,0.0829 0.123748,0.0822 0.128158,0 0.159455,-0.23566 0.318928,-0.47093 0.478524,-0.70694 0.104317,-0.0155 0.208701,-0.0322 0.313159,-0.0481 0.14993,-0.0109 0.310742,-0.006 0.460954,0.007 0.527791,0.0455 0.965529,0.22923 1.247469,0.70125 0.387104,0.647 0.471325,1.455 0.441833,2.1916 -0.0034,0.0833 0.123171,0.0822 0.128675,0 0.03173,-0.45911 0.0082,-1.033 -0.133842,-1.55753 -0.05046,-0.93294 -0.532642,-1.56413 -1.35444,-2.02261 -0.05951,-0.0332 -0.112785,0.0611 -0.05271,0.0904 0.369182,0.17815 0.790649,0.53936 0.989087,0.89813 0.06676,0.1207 0.113406,0.24453 0.148828,0.37104 -0.174017,-0.29708 -0.413301,-0.53959 -0.736389,-0.67955 -0.622115,-0.26973 -1.738587,-0.28432 -2.002462,0.39998 0.03786,-0.45157 0.273968,-0.91987 0.759127,-0.99012 0.07088,-0.0102 0.0576,-0.12892 -0.01085,-0.13023 z" />
    <path
       id="path106"
       style="fill:#100f0d;fill-opacity:1;fill-rule:nonzero;stroke:none;stroke-width:0.0352778"
       d="m 3.598747,262.73693 c -0.38783,-0.0106 -1.086491,0.21428 -0.727088,0.67697 0.0459,0.0593 0.150376,-0.0201 0.104903,-0.0811 -0.03651,-0.26917 0.06496,-0.41247 0.305408,-0.43046 0.169651,-0.0335 0.338202,-0.0294 0.505912,0.0129 0.226025,0.0533 0.419615,0.16612 0.59738,0.31006 0.270459,0.219 0.446436,0.49709 0.620117,0.78341 -0.513264,-0.40611 -1.302317,-0.60554 -1.86862,-0.57516 -0.07729,0.004 -0.07549,0.1111 0,0.11886 0.728169,0.0702 1.782256,0.28516 2.155424,1.002 0.04064,0.078 0.157087,0.01 0.117823,-0.0687 -0.03239,-0.0645 -0.07114,-0.12617 -0.115239,-0.185 0.0081,-0.0161 0.01,-0.0362 10e-4,-0.0574 -0.286879,-0.67627 -0.842434,-1.40489 -1.62419,-1.5012 -0.02269,-0.003 -0.04701,-0.004 -0.07286,-0.005 z" />
    <path
       id="path112"
       style="fill:#100f0d;fill-opacity:1;fill-rule:nonzero;stroke:none;stroke-width:0.0352778"
       d="m 3.833358,265.729 c -0.05781,-0.002 -0.112682,0.007 -0.162781,0.031 -0.04643,0.0226 -0.01909,0.0859 0.02377,0.0894 0.590892,0.0501 0.942812,0.53654 1.076937,1.06453 -0.10322,-0.2323 -0.252222,-0.43358 -0.507979,-0.53536 -0.24765,-0.0984 -0.658749,-0.17212 -0.84491,0.0646 -0.0057,0.007 -0.0097,0.0146 -0.01189,0.0222 -0.04584,0.006 -0.07259,0.0703 -0.03566,0.10645 0.141922,0.13864 0.248328,0.27855 0.192236,0.49093 -0.05179,0.19685 -0.218546,0.32957 -0.396875,0.40824 -0.06131,0.0272 -0.01741,0.13303 0.04599,0.10904 0.242534,-0.0914 0.460312,-0.27189 0.503845,-0.54106 0.03017,-0.18628 -0.03676,-0.41912 -0.197404,-0.52813 0.203404,-0.20324 0.714245,-0.0649 0.891419,0.0977 0.201189,0.18415 0.278992,0.45883 0.356567,0.71107 0.02646,0.0854 0.159723,0.0492 0.134359,-0.0372 -0.0069,-0.0236 -0.01392,-0.0472 -0.02119,-0.0708 0.03635,0.005 0.07353,-0.0147 0.06821,-0.0615 -0.04163,-0.3616 -0.144418,-0.77327 -0.413411,-1.03715 -0.150825,-0.1479 -0.45073,-0.37379 -0.701249,-0.38395 z m -0.387573,0.0501 c -0.0048,3.5e-4 -0.0098,0.001 -0.01499,0.003 -0.443724,0.12524 -0.95103,0.45404 -1.068152,0.93276 -0.07715,0.31573 0.132031,0.92419 0.531234,0.86351 0.05073,-0.008 0.03612,-0.0741 0,-0.0889 -0.474451,-0.19473 -0.487594,-0.72571 -0.202055,-1.07848 0.202282,-0.25012 0.466138,-0.41345 0.774113,-0.50023 0.07752,-0.0218 0.05189,-0.13646 -0.02015,-0.13126 z" />
    <path
       id="path118"
       style="fill:#100f0d;fill-opacity:1;fill-rule:nonzero;stroke:none;stroke-width:0.0352778"
       d="m 3.916557,259.59087 c -0.111809,0.006 -0.225343,0.0254 -0.337447,0.0574 -0.08255,0.0236 -0.0477,0.15177 0.03566,0.1292 0.377296,-0.1016 0.747611,-0.0591 1.027328,0.23616 0.257846,0.27234 0.221893,0.58272 0.05323,0.8847 -0.0062,0.0111 -0.0088,0.0216 -0.0088,0.0315 -0.003,0.001 -0.0058,0.003 -0.0088,0.005 -0.123895,0.0804 -0.253764,0.10072 -0.397909,0.0661 -0.06784,-0.0162 -0.106254,0.0581 -0.08268,0.10542 0.004,0.0209 0.01805,0.04 0.04496,0.0481 0.732444,0.21982 1.083717,1.24332 1.079004,1.94561 -0.094929,-0.32458 -0.260662,-0.61898 -0.495558,-0.86868 -0.324697,-0.34502 -0.722947,-0.44805 -1.115694,-0.68265 -0.07345,-0.0441 -0.137364,0.0675 -0.06666,0.11369 0.336091,0.22225 0.712421,0.30775 1.013375,0.59738 0.29464,0.28363 0.483514,0.64084 0.579293,1.0356 0.01949,0.0806 0.139318,0.0486 0.127124,-0.03 0.04083,0.0119 0.09549,-0.0109 0.100769,-0.0667 0.06155,-0.66354 -0.269339,-1.6901 -0.913122,-2.06085 0.06626,-0.0189 0.130103,-0.0499 0.191202,-0.093 0.0228,-0.0162 0.03045,-0.0395 0.02791,-0.0615 0.0073,-0.002 0.01446,-0.006 0.02119,-0.0119 0.300275,-0.2406 0.225444,-0.72903 0.011876,-0.99891 -0.229764,-0.28998 -0.550824,-0.39923 -0.886251,-0.38189 z m -0.554488,0.11007 c -0.01131,2.7e-4 -0.02293,0.004 -0.03514,0.0114 -0.361032,0.2279 -0.475104,0.52964 -0.457853,0.9431 0.01774,0.4198 0.213756,0.67902 0.559655,0.90692 0.07303,0.048 0.139617,-0.0681 0.06821,-0.11679 -0.291711,-0.19897 -0.47018,-0.42712 -0.483691,-0.79013 -0.0121,-0.33126 0.101202,-0.63631 0.385506,-0.82011 0.06477,-0.042 0.0244,-0.13582 -0.03669,-0.13436 z" />
    <path
       id="path121"
       d="m 4.72541,260.97382 c 0.0019,0 0.0019,-0.003 0,-0.003 -0.0018,0 -0.0021,0.003 0,0.003 v 0"
       style="fill:#100f0d;fill-opacity:1;fill-rule:nonzero;stroke:none;stroke-width:0.0352778" />
    <path
       id="path124"
       style="fill:#100f0d;fill-opacity:1;fill-rule:nonzero;stroke:none;stroke-width:0.0352778"
       d="m 4.217314,267.82138 c -0.171894,-0.0127 -0.354572,0.0677 -0.467672,0.19482 -0.107492,0.12136 -0.134737,0.31041 0.01395,0.40566 0.0046,0.003 0.0099,0.005 0.01499,0.006 -0.02587,0.0185 -0.04136,0.0527 -0.02015,0.0832 0.06107,0.0878 0.148876,0.15643 0.261483,0.12609 0.07327,-0.0197 0.12501,-0.071 0.132291,-0.13539 0.0121,0.007 0.02771,0.009 0.04548,0.006 0.08668,-0.0155 0.156777,0.13576 0.186552,0.19327 0.06089,0.11747 0.100589,0.23024 0.03307,0.3576 -0.04629,0.0875 0.07174,0.14901 0.128675,0.0749 0.04431,-0.0573 0.07982,-0.11143 0.101286,-0.17415 0.01846,0.002 0.03777,-0.007 0.05168,-0.0284 h 5.17e-4 c 0.258939,-0.4064 0.0747,-0.98242 -0.409278,-1.09813 -0.02387,-0.006 -0.04831,-0.01 -0.07286,-0.0114 z m -0.05994,0.14418 c 0.09416,-0.003 0.186134,0.0279 0.272852,0.0848 0.261824,0.17189 0.292778,0.49606 0.189135,0.77204 -0.01063,-0.001 -0.02152,-3e-5 -0.03204,0.003 -0.01638,-0.0753 -0.04979,-0.14966 -0.09198,-0.22272 -0.07165,-0.12418 -0.166723,-0.27652 -0.330729,-0.21549 -0.01458,0.005 -0.02543,0.0139 -0.03256,0.0238 -0.02147,-0.0253 -0.06245,-0.0292 -0.08217,0.005 -0.02921,0.0755 -0.09282,0.0819 -0.191203,0.0181 -0.01079,-0.0134 -0.02469,-0.0192 -0.03876,-0.0196 0.01206,-0.0111 0.01872,-0.0274 0.01188,-0.0444 -0.06174,-0.15593 0.0041,-0.28228 0.153996,-0.35812 0.05732,-0.0291 0.115069,-0.0439 0.171566,-0.046 z" />
    <path
       id="path130"
       style="fill:#100f0d;fill-opacity:1;fill-rule:nonzero;stroke:none;stroke-width:0.0352778"
       d="m 1.965771,274.43958 c -0.04224,3.9e-4 -0.07482,0.0407 -0.06925,0.0775 -0.01279,-0.0156 -0.03334,-0.0243 -0.05684,-0.0165 -0.218582,0.0713 -0.420061,0.28723 -0.569991,0.45268 -0.02074,0.0229 -0.02102,0.0496 -0.01034,0.0708 -0.01385,0.0224 -0.01536,0.0523 0.0088,0.077 0.156421,0.1598 0.389783,0.46321 0.624768,0.49919 0.03637,0.006 0.08034,-0.0325 0.05374,-0.0703 -0.0707,-0.10019 -0.185544,-0.15801 -0.278536,-0.23668 -0.100629,-0.085 -0.196725,-0.17584 -0.291455,-0.26768 0.162615,-0.1555 0.364792,-0.27053 0.518832,-0.42943 0.01391,-0.0145 0.0175,-0.0337 0.01395,-0.0512 0.0051,0.006 0.0119,0.0111 0.02015,0.0155 0.313072,0.16677 0.638758,0.31569 0.945679,0.49454 -0.285646,0.16412 -0.588543,0.29655 -0.869715,0.46819 -0.06847,0.0416 -0.0088,0.13823 0.0615,0.10542 0.319722,-0.14852 0.640576,-0.29997 0.943612,-0.48059 0.03804,-0.0226 0.04264,-0.0623 0.02842,-0.0935 0.0136,-0.031 0.009,-0.0696 -0.02842,-0.092 -0.323285,-0.19333 -0.671826,-0.35997 -1.014408,-0.51625 -0.01044,-0.005 -0.02074,-0.007 -0.03049,-0.007 z" />
    <path
       id="path134"
       style="fill:#100f0d;fill-opacity:1;fill-rule:nonzero;stroke:none;stroke-width:0.0352778"
       d="m 40.037349,268.40584 c -0.03077,0.002 -0.05941,0.0236 -0.05891,0.0641 0.02787,2.10785 2.985202,3.32257 2.138888,5.52214 -0.02575,0.0667 0.08753,0.11541 0.115755,0.0491 0.9398,-2.20451 -2.02414,-3.51983 -2.120801,-5.57123 -0.0022,-0.0452 -0.04005,-0.0667 -0.07493,-0.0641 z m 0.02946,2.50631 c -0.06562,-3.6e-4 -0.08375,0.10512 -0.01602,0.11782 0.384528,0.073 0.705483,0.20179 0.965833,0.50694 0.0508,0.0596 0.134814,-0.026 0.08578,-0.0853 -0.249062,-0.30092 -0.635546,-0.53703 -1.035596,-0.5395 z m 0.3545,0.94412 c -0.170437,-4.3e-4 -0.331292,0.0568 -0.445967,0.20929 -0.03316,0.0444 0.02949,0.0967 0.07183,0.0723 0.352072,-0.20249 0.675449,-0.14474 1.00459,0.0853 0.259645,0.18168 0.484441,0.56098 0.467155,0.87954 -1.97e-4,0.004 1.51e-4,0.008 5.17e-4,0.0109 -0.01574,-0.0608 -0.03784,-0.12012 -0.06356,-0.17932 -0.03175,-0.073 -0.160917,-0.0202 -0.130225,0.0543 0.04445,0.1083 0.06417,0.21676 0.08217,0.33176 0.01235,0.079 0.134851,0.0576 0.135909,-0.0186 5.07e-4,-0.0598 -0.0071,-0.11735 -0.02067,-0.17363 0.01963,0.0474 0.10476,0.0376 0.110587,-0.0253 0.03775,-0.39934 -0.254121,-0.82828 -0.58291,-1.03818 -0.175022,-0.11172 -0.410285,-0.2077 -0.629419,-0.20826 z m 0.302824,0.70849 c -0.322488,0.004 -0.650509,0.17448 -0.827339,0.447 -0.276931,0.42651 -0.260979,1.16564 0.202571,1.45986 0.05503,0.0353 0.119319,-0.0461 0.07028,-0.0909 -0.329142,-0.30022 -0.401458,-0.8254 -0.191203,-1.21698 0.250825,-0.46673 0.777911,-0.54203 1.218531,-0.32401 0.05327,0.0265 0.119205,-0.0441 0.0677,-0.0879 -0.15584,-0.1319 -0.347043,-0.18943 -0.540536,-0.18707 z m 1.210262,1.76733 c -0.0148,4e-5 -0.02924,0.007 -0.03824,0.0238 -0.256823,0.46884 -1.085236,0.51975 -1.495516,0.28939 -0.07902,-0.0441 -0.150335,0.0765 -0.07131,0.12092 h 5.17e-4 c 0.307975,0.17533 0.656597,0.20615 0.996322,0.10491 0.22225,-0.0663 0.673666,-0.20835 0.659908,-0.49093 -0.0016,-0.0284 -0.02701,-0.0481 -0.05168,-0.0481 z" />
    <path
       id="path136"
       style="fill:#100f0d;fill-opacity:1;fill-rule:nonzero;stroke:none;stroke-width:0.0352778"
       d="m 42.096655,264.19008 c -0.153811,-0.002 -0.327916,1.8e-4 -0.455269,0.0951 -0.03175,0.024 -0.02291,0.0756 0.02119,0.077 0.145344,0.005 0.287327,-0.0435 0.434082,-0.047 0.08043,-0.002 0.08079,-0.12435 0,-0.12506 z m 0.2651,0.0692 c -0.06739,0.002 -0.08262,0.11963 -0.01085,0.13023 0.485272,0.0702 0.721282,0.53797 0.759127,0.9896 -0.263943,-0.68392 -1.380201,-0.66579 -2.002462,-0.39946 -0.329366,0.14101 -0.571421,0.3898 -0.746207,0.69505 0.03607,-0.13333 0.08537,-0.26298 0.158646,-0.38654 0.214136,-0.36054 0.61091,-0.7154 0.989087,-0.89814 0.06032,-0.0289 0.0066,-0.12394 -0.05271,-0.0904 -0.82253,0.45871 -1.304692,1.08942 -1.354956,2.02417 -0.141653,0.52539 -0.164663,1.09991 -0.133325,1.55649 0.0056,0.0815 0.131849,0.0833 0.128674,0 -0.02928,-0.73484 0.0559,-1.54618 0.441834,-2.19212 0.255764,-0.42791 0.662261,-0.64142 1.1498,-0.69504 0.535517,-0.0593 1.30762,-0.0711 1.350306,0.74207 0.0046,0.0818 0.12604,0.0829 0.128157,0 5.45e-4,-0.023 2.74e-4,-0.0452 -5.17e-4,-0.0672 0.03957,0.007 0.08744,-0.0158 0.09043,-0.0677 0.03175,-0.56197 -0.251201,-1.28475 -0.888318,-1.34049 -0.0023,-1.9e-4 -0.0045,-5.6e-4 -0.0067,-5.1e-4 z" />
    <path
       id="path137"
       style="fill:#100f0d;fill-opacity:1;fill-rule:nonzero;stroke:none;stroke-width:0.0352778"
       d="m 41.790731,262.70955 c -0.02581,6.4e-4 -0.05024,0.002 -0.07286,0.005 -0.78105,0.0931 -1.33844,0.82774 -1.62419,1.5012 -0.0091,0.0212 -0.0071,0.0412 0.001,0.0574 -0.04409,0.0588 -0.08287,0.121 -0.115238,0.18552 -0.03916,0.078 0.07725,0.14669 0.117822,0.0687 0.373944,-0.71791 1.425879,-0.93197 2.155424,-1.00253 0.07549,-0.007 0.07761,-0.11462 0,-0.11885 -0.56655,-0.0304 -1.355589,0.16935 -1.86862,0.57516 0.173638,-0.28636 0.349826,-0.56425 0.620117,-0.78342 0.1778,-0.14393 0.371602,-0.25644 0.59738,-0.31006 0.167569,-0.0423 0.336226,-0.0466 0.505912,-0.0134 0.240242,0.018 0.342097,0.16232 0.305408,0.43149 -0.0448,0.0603 0.05885,0.14111 0.10542,0.0811 0.359502,-0.46336 -0.340466,-0.68712 -0.727604,-0.67748 z" />
    <path
       id="path143"
       style="fill:#100f0d;fill-opacity:1;fill-rule:nonzero;stroke:none;stroke-width:0.0352778"
       d="m 41.55612,265.70161 c -0.250639,0.0101 -0.550767,0.23605 -0.701249,0.38396 -0.269169,0.26423 -0.372137,0.67503 -0.413412,1.03663 -0.0055,0.0468 0.03182,0.0671 0.06821,0.062 -0.0073,0.0237 -0.01422,0.0476 -0.02119,0.0713 -0.02505,0.0861 0.107899,0.12206 0.134358,0.0367 0.0769,-0.25048 0.153721,-0.53026 0.356568,-0.71159 0.184689,-0.16474 0.686753,-0.30385 0.891935,-0.0966 -0.160766,0.10897 -0.228219,0.3418 -0.197921,0.52813 0.04339,0.26917 0.261488,0.44917 0.503846,0.54054 0.06279,0.0236 0.108435,-0.0819 0.04599,-0.10904 -0.178152,-0.0787 -0.345016,-0.21139 -0.396875,-0.40824 -0.05609,-0.21237 0.0499,-0.35212 0.191719,-0.49041 0.03704,-0.0361 0.01072,-0.10126 -0.03514,-0.10697 -0.0022,-0.008 -0.0057,-0.015 -0.01137,-0.0222 -0.185914,-0.23636 -0.598834,-0.16284 -0.845426,-0.0651 -0.255245,0.10177 -0.404584,0.30352 -0.507979,0.53588 0.13404,-0.52804 0.48594,-1.01465 1.076936,-1.06505 0.04269,-0.004 0.07086,-0.0663 0.02429,-0.0889 -0.05014,-0.0243 -0.105458,-0.0333 -0.163297,-0.031 z m 0.380338,0.0501 c -0.06647,0.002 -0.08805,0.11068 -0.01292,0.13178 0.307975,0.0868 0.571618,0.24994 0.774113,0.49971 0.285397,0.35277 0.272431,0.88359 -0.202055,1.07797 -0.03634,0.0152 -0.0508,0.0811 0,0.0889 0.398992,0.0607 0.608493,-0.54691 0.531234,-0.863 -0.116769,-0.47837 -0.624357,-0.80736 -1.068152,-0.93224 -0.0078,-0.002 -0.01534,-0.003 -0.02222,-0.003 z" />
    <path
       id="path149"
       style="fill:#100f0d;fill-opacity:1;fill-rule:nonzero;stroke:none;stroke-width:0.0352778"
       d="m 41.472404,259.56348 c -0.335145,-0.0172 -0.65474,0.0932 -0.886251,0.38241 -0.214488,0.26846 -0.286395,0.75902 0.0124,0.99891 0.0068,0.005 0.01374,0.009 0.02119,0.0114 -0.0026,0.022 0.0051,0.0454 0.02791,0.0615 0.06117,0.0432 0.125273,0.0742 0.19172,0.093 -0.643573,0.37064 -0.974786,1.39875 -0.913123,2.06085 0.0052,0.056 0.05994,0.0786 0.100769,0.0667 -0.01232,0.0786 0.107213,0.11066 0.126607,0.03 0.09596,-0.39547 0.284371,-0.75145 0.579293,-1.03508 0.301272,-0.28998 0.676825,-0.37513 1.013375,-0.59738 0.07055,-0.0466 0.0071,-0.1583 -0.06666,-0.1142 -0.3937,0.23495 -0.79008,0.33657 -1.115694,0.68264 -0.234556,0.24943 -0.400628,0.54399 -0.495577,0.86868 -0.0049,-0.70422 0.345898,-1.72572 1.079004,-1.94562 0.02701,-0.008 0.04099,-0.027 0.04496,-0.048 0.02322,-0.0473 -0.01485,-0.12159 -0.08268,-0.10542 -0.143933,0.0349 -0.27286,0.015 -0.397391,-0.0661 -0.003,-0.002 -0.0063,-0.004 -0.0093,-0.005 -2.4e-5,-0.01 -0.0026,-0.0204 -0.0088,-0.0315 -0.168275,-0.30092 -0.203593,-0.61342 0.05323,-0.8847 0.280105,-0.29598 0.649502,-0.33777 1.027327,-0.23617 0.08326,0.0222 0.118208,-0.10503 0.03566,-0.12867 -0.112536,-0.0322 -0.226249,-0.0521 -0.337964,-0.0579 z m 0.555005,0.10956 c -0.06102,-0.001 -0.101577,0.0929 -0.03669,0.13487 0.278342,0.18027 0.397853,0.4968 0.385506,0.81959 -0.01376,0.35913 -0.194767,0.5938 -0.483692,0.79065 -0.07126,0.0483 -0.0048,0.16477 0.06821,0.11679 0.342547,-0.22542 0.544298,-0.48869 0.560173,-0.90744 0.01552,-0.41522 -0.09324,-0.71186 -0.45837,-0.94258 -0.01218,-0.008 -0.02384,-0.0116 -0.03514,-0.0119 z" />
    <path
       id="path152"
       d="m 40.664014,260.94631 c 0.0021,0 0.0021,-0.003 0,-0.003 -0.0018,0 -0.0018,0.003 0,0.003 v 0"
       style="fill:#100f0d;fill-opacity:1;fill-rule:nonzero;stroke:none;stroke-width:0.0352778" />
    <path
       id="path155"
       style="fill:#100f0d;fill-opacity:1;fill-rule:nonzero;stroke:none;stroke-width:0.0352778"
       d="m 41.174231,267.79399 c -0.0255,0.002 -0.0505,0.005 -0.07493,0.0114 -0.484364,0.11606 -0.668052,0.69189 -0.40876,1.09864 0.01391,0.0218 0.03321,0.0295 0.05168,0.0279 0.02152,0.0627 0.05719,0.11722 0.101286,0.17467 0.05715,0.0737 0.17524,0.0117 0.128674,-0.0754 -0.06738,-0.12771 -0.02796,-0.24048 0.03307,-0.3576 0.02999,-0.0579 0.100286,-0.2088 0.187069,-0.19327 0.01771,0.003 0.03286,4.4e-4 0.04496,-0.006 0.0072,0.0643 0.05888,0.11567 0.132292,0.13539 0.112536,0.0303 0.200453,-0.0379 0.261483,-0.12609 0.0209,-0.0302 0.0056,-0.0646 -0.02015,-0.0832 0.0051,-8.4e-4 0.01041,-0.003 0.01499,-0.006 0.138641,-0.0882 0.125362,-0.26274 0.03152,-0.38551 -0.107422,-0.14014 -0.304651,-0.22676 -0.483175,-0.21497 z m 0.02687,0.14521 c 0.05027,-0.002 0.101596,0.007 0.154512,0.0258 0.169333,0.0617 0.273316,0.19838 0.202055,0.37724 -0.0068,0.0168 -6.46e-4,0.0333 0.01137,0.0444 -0.01394,5.8e-4 -0.02736,0.006 -0.03824,0.0196 -0.09807,0.0635 -0.162274,0.0577 -0.191202,-0.0181 -0.0199,-0.0335 -0.06075,-0.0294 -0.08217,-0.004 -0.0071,-0.01 -0.01745,-0.0183 -0.03204,-0.0238 -0.163336,-0.061 -0.259632,0.0911 -0.331246,0.21497 -0.04217,0.073 -0.07504,0.14689 -0.09147,0.22221 -0.01052,-0.003 -0.02194,-0.004 -0.03256,-0.003 -0.103411,-0.27594 -0.0719,-0.60056 0.189653,-0.77204 0.07739,-0.0509 0.157547,-0.0809 0.241329,-0.0837 z" />
    <path
       id="path161"
       style="fill:#100f0d;fill-opacity:1;fill-rule:nonzero;stroke:none;stroke-width:0.0352778"
       d="m 40.942721,275.06797 c -0.211722,-5.7e-4 -0.419075,0.0517 -0.612883,0.16174 -0.07867,0.0448 -0.0082,0.16589 0.0708,0.12144 0.411338,-0.23072 1.238693,-0.17997 1.495516,0.28887 0.02399,0.0437 0.08745,0.0216 0.08992,-0.0243 0.01376,-0.28363 -0.435188,-0.42566 -0.659908,-0.49092 -0.127926,-0.0372 -0.256406,-0.0565 -0.383439,-0.0568 z m -0.817005,0.44803 c -0.0086,3.7e-4 -0.01765,0.003 -0.02635,0.008 -0.464608,0.29492 -0.478091,1.03229 -0.202571,1.45986 0.281869,0.43709 0.953008,0.61094 1.367875,0.25993 0.0508,-0.043 -0.01373,-0.11466 -0.0677,-0.0879 -0.445206,0.21978 -0.96312,0.14147 -1.218531,-0.32349 -0.213783,-0.38982 -0.135822,-0.91818 0.191203,-1.21698 0.04107,-0.0372 0.0026,-0.10173 -0.04393,-0.0997 z m 2.057239,0.40721 c -0.03969,6.7e-4 -0.08276,0.0364 -0.06563,0.0806 0.846667,2.20063 -2.111018,3.41218 -2.138888,5.52214 -0.0011,0.0864 0.129609,0.0854 0.133842,0 0.09666,-2.05493 3.061307,-3.36496 2.120801,-5.57123 -0.0096,-0.0226 -0.02933,-0.0319 -0.05013,-0.0315 z m -0.720886,0.7028 c -0.02595,0.002 -0.04924,0.0172 -0.05426,0.0496 -0.01799,0.11536 -0.03737,0.22346 -0.08217,0.33176 -0.03034,0.0737 0.09812,0.12851 0.130225,0.0548 0.02572,-0.059 0.04782,-0.11854 0.06356,-0.17932 -3.48e-4,0.003 -7.09e-4,0.007 -5.17e-4,0.0104 0.01729,0.31855 -0.20751,0.69785 -0.467155,0.87953 -0.329141,0.23001 -0.652518,0.28792 -1.00459,0.0858 -0.04233,-0.0247 -0.104988,0.0277 -0.07183,0.0718 0.262114,0.34889 0.764589,0.19925 1.075386,10e-4 0.329142,-0.20991 0.620657,-0.63813 0.58291,-1.03818 -0.0058,-0.0628 -0.09084,-0.0726 -0.110587,-0.0253 0.01349,-0.0562 0.02116,-0.11378 0.02067,-0.17364 -4.18e-4,-0.0446 -0.04373,-0.0709 -0.08165,-0.0682 z m -0.409278,1.81281 c -0.01255,8.8e-4 -0.02506,0.007 -0.03617,0.0202 -0.260703,0.30586 -0.581658,0.43479 -0.965833,0.50746 -0.06703,0.0127 -0.0503,0.11766 0.01602,0.11731 0.40005,-0.002 0.786534,-0.23807 1.035596,-0.53899 0.03831,-0.0463 -0.0048,-0.10909 -0.04961,-0.10594 z" />
    <path
       id="path163"
       style="fill:#100f0d;fill-opacity:1;fill-rule:nonzero;stroke:none;stroke-width:0.0352778"
       d="m 40.035799,282.0541 c -0.03189,1.8e-4 -0.06487,0.0211 -0.0677,0.062 -0.03151,0.4588 -0.0085,1.0323 0.133325,1.5565 0.05046,0.93369 0.532897,1.56502 1.354956,2.02365 0.05927,0.0335 0.113039,-0.0611 0.05271,-0.0904 -0.369005,-0.17816 -0.790473,-0.53885 -0.989087,-0.89762 -0.06672,-0.12079 -0.11345,-0.24543 -0.148828,-0.37207 0.174049,0.29718 0.413145,0.53996 0.736389,0.68006 0.621994,0.27003 1.739066,0.28452 2.002979,-0.39998 -0.03774,0.45161 -0.274231,0.91987 -0.759644,0.99012 -0.07303,0.0106 -0.05616,0.13658 0.01757,0.13023 0.636764,-0.0554 0.920068,-0.77887 0.888318,-1.34049 -0.003,-0.0519 -0.05087,-0.0745 -0.09043,-0.0677 7.99e-4,-0.022 0.0011,-0.0447 5.17e-4,-0.0677 -0.0021,-0.0825 -0.123571,-0.0818 -0.128157,0 -0.159456,0.23566 -0.318715,0.47128 -0.478524,0.70693 -0.104069,0.0159 -0.208736,0.0317 -0.313159,0.0475 -0.14993,0.0113 -0.310671,0.007 -0.460954,-0.006 -0.527403,-0.0452 -0.9656,-0.22958 -1.247469,-0.70125 -0.14938,-0.24973 -0.254017,-0.52337 -0.324011,-0.8077 -2.49e-4,-10e-4 -2.7e-4,-0.002 -5.17e-4,-0.003 -4.82e-4,-0.002 -8.57e-4,-0.005 -0.0016,-0.007 -0.109322,-0.44943 -0.133606,-0.92502 -0.115756,-1.37408 0.0016,-0.0416 -0.02909,-0.0622 -0.06098,-0.062 z m 1.626774,3.57963 c -0.0441,0.001 -0.05294,0.0534 -0.02119,0.077 0.126647,0.0949 0.302164,0.097 0.455269,0.0956 0.08043,-7.1e-4 0.08043,-0.12381 0,-0.12558 -0.146755,-0.003 -0.288738,-0.0516 -0.434082,-0.047 z" />
    <path
       id="path164"
       style="fill:#100f0d;fill-opacity:1;fill-rule:nonzero;stroke:none;stroke-width:0.0352778"
       d="m 40.044067,285.43426 c -0.04484,2e-4 -0.09152,0.0497 -0.06459,0.10335 0.03236,0.0645 0.07119,0.12621 0.115238,0.185 -0.008,0.0161 -0.01006,0.0362 -10e-4,0.0574 0.286808,0.67628 0.842434,1.40489 1.62419,1.5012 0.363008,0.0448 1.183584,-0.17826 0.800468,-0.67179 -0.04621,-0.0593 -0.150576,0.0205 -0.10542,0.0811 0.03669,0.26952 -0.06516,0.41299 -0.305408,0.43098 -0.169686,0.0335 -0.338343,0.0292 -0.505912,-0.0134 -0.225778,-0.0533 -0.41958,-0.16613 -0.59738,-0.31006 -0.270328,-0.21894 -0.446456,-0.49651 -0.620117,-0.7829 0.513156,0.40591 1.302233,0.60502 1.86862,0.57465 0.07761,-0.004 0.07549,-0.11145 0,-0.11886 -0.728133,-0.0702 -1.781833,-0.28516 -2.155424,-1.00201 -0.01268,-0.0245 -0.03284,-0.0347 -0.05323,-0.0346 z" />
    <path
       id="path170"
       style="fill:#100f0d;fill-opacity:1;fill-rule:nonzero;stroke:none;stroke-width:0.0352778"
       d="m 42.19484,282.43961 c -0.0055,1.3e-4 -0.01162,0.001 -0.01757,0.004 -0.242358,0.0917 -0.460455,0.27153 -0.503846,0.54105 -0.03028,0.18624 0.03682,0.41909 0.197404,0.52813 -0.203328,0.20338 -0.713735,0.0654 -0.891418,-0.0971 -0.201083,-0.18415 -0.278957,-0.4597 -0.356568,-0.71158 -0.02611,-0.0854 -0.159758,-0.0492 -0.134358,0.0372 0.0069,0.0236 0.01392,0.0472 0.02119,0.0708 -0.03636,-0.005 -0.07366,0.0153 -0.06821,0.062 0.04127,0.36159 0.144243,0.77275 0.413412,1.03663 0.185209,0.18203 0.59714,0.48242 0.864546,0.35295 0.04657,-0.0226 0.0184,-0.085 -0.02429,-0.0889 -0.590321,-0.0503 -0.942034,-0.53616 -1.07642,-1.0635 0.103216,0.23166 0.25226,0.43276 0.507463,0.53433 0.24765,0.0984 0.659159,0.17212 0.845426,-0.0646 0.0057,-0.007 0.0092,-0.0151 0.01137,-0.0227 0.04562,-0.006 0.07214,-0.0707 0.03514,-0.10645 -0.141817,-0.13829 -0.24781,-0.27856 -0.191719,-0.49093 0.05186,-0.19685 0.218723,-0.32906 0.396875,-0.40773 0.05595,-0.0246 0.02514,-0.11445 -0.02842,-0.11317 z m 0.337448,0.002 c -0.0121,6.2e-4 -0.02422,0.002 -0.03669,0.004 -0.0508,0.008 -0.03634,0.0741 0,0.0889 0.474486,0.19438 0.487452,0.72571 0.202055,1.07849 -0.202495,0.25011 -0.466138,0.41257 -0.774113,0.49971 -0.08255,0.0233 -0.04776,0.15195 0.03514,0.12867 0.443795,-0.12523 0.951383,-0.45404 1.068152,-0.93276 0.07485,-0.30587 -0.119582,-0.88632 -0.494543,-0.86713 z" />
    <path
       id="path174"
       style="fill:#100f0d;fill-opacity:1;fill-rule:nonzero;stroke:none;stroke-width:0.0352778"
       d="m 39.931413,290.48046 c -0.04282,0.004 -0.08438,0.0515 -0.05891,0.10284 0.141111,0.28363 0.298426,0.5877 0.56689,0.77256 0.306917,0.21131 0.747478,0.22719 1.104842,0.27905 -4.48e-4,0.002 -8.1e-4,0.005 -10e-4,0.007 -0.0635,0.7179 -0.06065,1.48969 -0.0098,2.20865 0.0056,0.078 0.116148,0.078 0.12144,0 0.0508,-0.71861 0.05401,-1.49075 -0.0098,-2.20865 -0.0018,-0.0208 -0.01188,-0.0348 -0.02532,-0.0424 0.02238,-0.0364 0.01585,-0.0884 -0.03824,-0.0987 -0.314678,-0.0603 -0.70592,-0.0636 -0.99167,-0.22169 -0.289983,-0.16016 -0.451281,-0.48329 -0.599447,-0.76481 -0.01407,-0.0269 -0.03648,-0.0364 -0.05891,-0.0341 z m -1.713074,1.7415 c -0.0606,0.003 -0.09967,0.0907 -0.03359,0.12557 0.281164,0.14781 0.604814,0.30878 0.765328,0.59841 0.159103,0.28752 0.16085,0.67523 0.221175,0.99167 0.01047,0.054 0.06182,0.061 0.09819,0.0388 0.0076,0.0135 0.02208,0.0235 0.04289,0.0253 0.718256,0.0639 1.490206,0.0606 2.209168,0.01 0.07761,-0.005 0.07796,-0.11563 0,-0.12092 -0.718962,-0.0512 -1.490912,-0.0542 -2.209168,0.009 -0.0023,2e-4 -0.0046,6.3e-4 -0.0067,10e-4 -0.05256,-0.35948 -0.06842,-0.79529 -0.280086,-1.10433 -0.183797,-0.26846 -0.488766,-0.42648 -0.772046,-0.56689 -0.01218,-0.006 -0.02392,-0.008 -0.03514,-0.008 z" />
    <path
       id="path176"
       style="fill:#100f0d;fill-opacity:1;fill-rule:nonzero;stroke:none;stroke-width:0.0352778"
       d="M 40.095744 286.68069 C 40.058574 286.68079 40.019137 286.71109 40.026497 286.75769 C 39.985667 286.74569 39.931397 286.76887 39.926245 286.82487 C 39.864272 287.48854 40.195552 288.51471 40.839368 288.88521 C 40.772959 288.9041 40.708945 288.93543 40.647648 288.97874 C 40.625055 288.99479 40.617759 289.01835 40.62026 289.04024 C 40.612866 289.04273 40.605384 289.04638 40.598556 289.05161 C 40.298695 289.29185 40.373239 289.78048 40.58667 290.05 C 40.893234 290.437 41.361987 290.5031 41.810368 290.37504 C 41.892918 290.35144 41.858321 290.22363 41.774711 290.24585 C 41.397592 290.34781 41.027137 290.30495 40.747384 290.00969 C 40.489503 289.7377 40.52553 289.42712 40.694157 289.1255 C 40.700405 289.1143 40.702992 289.10348 40.702942 289.09347 C 40.705897 289.09207 40.709245 289.09025 40.712244 289.0883 C 40.836069 289.0079 40.965349 288.98756 41.109635 289.02215 C 41.177004 289.03855 41.215536 288.96517 41.192834 288.91777 C 41.188968 288.89663 41.174566 288.87735 41.147359 288.86919 C 40.414823 288.64936 40.063694 287.62535 40.068355 286.92306 C 40.163245 287.24766 40.329079 287.54232 40.563932 287.79174 C 40.888841 288.13711 41.286984 288.23979 41.679626 288.47438 C 41.753356 288.51808 41.816842 288.40678 41.746289 288.36018 C 41.410092 288.13828 41.034186 288.05294 40.732914 287.76331 C 40.438345 287.47967 40.249224 287.12283 40.153621 286.72772 C 40.145721 286.69502 40.121174 286.68059 40.095744 286.68069 z M 41.921472 288.45009 C 41.867922 288.45409 41.834633 288.53849 41.892533 288.57773 C 42.18428 288.7767 42.362819 289.00538 42.376225 289.36838 C 42.388575 289.69964 42.275058 290.00382 41.990719 290.18797 C 41.913809 290.23767 41.984619 290.36035 42.062549 290.31096 C 42.42344 290.08307 42.538205 289.78184 42.520919 289.36838 C 42.503279 288.94823 42.306821 288.68936 41.960746 288.46146 C 41.947056 288.45246 41.933822 288.44909 41.921472 288.45009 z " />
    <path
       id="path179"
       d="m 40.664014,289.05282 c 0.0021,0 0.0021,-0.003 0,-0.003 -0.0018,0 -0.0018,0.003 0,0.003 v 0"
       style="fill:#100f0d;fill-opacity:1;fill-rule:nonzero;stroke:none;stroke-width:0.0352778" />
    <path
       id="path182"
       style="fill:#100f0d;fill-opacity:1;fill-rule:nonzero;stroke:none;stroke-width:0.0352778"
       d="m 40.908097,280.85676 c -0.02281,-1e-4 -0.04673,0.01 -0.06459,0.0326 -0.04414,0.0575 -0.07977,0.11191 -0.101286,0.17466 -0.01845,-0.002 -0.03777,0.007 -0.05168,0.0284 -0.258939,0.4064 -0.07561,0.98206 0.40876,1.09813 0.190853,0.0455 0.411066,-0.0378 0.540536,-0.18345 0.107597,-0.121 0.134565,-0.31041 -0.01395,-0.40566 -0.0046,-0.003 -0.0098,-0.005 -0.01499,-0.006 0.02588,-0.0185 0.04122,-0.0527 0.02015,-0.0832 -0.06103,-0.0878 -0.148594,-0.15643 -0.261483,-0.12609 -0.07312,0.0197 -0.125018,0.071 -0.132292,0.13539 -0.01211,-0.007 -0.02722,-0.009 -0.04496,-0.006 -0.08678,0.0155 -0.157083,-0.13525 -0.187069,-0.19275 -0.06103,-0.11748 -0.100455,-0.23042 -0.03307,-0.35812 0.03177,-0.0597 -0.01391,-0.10779 -0.06408,-0.10801 z m -0.10542,0.34158 c 0.01638,0.0753 0.04929,0.14967 0.09147,0.22272 0.07161,0.12418 0.166852,0.27585 0.331246,0.21446 0.01457,-0.005 0.02492,-0.0134 0.03204,-0.0232 0.02141,0.0251 0.06227,0.0289 0.08217,-0.005 0.02893,-0.0755 0.09313,-0.0812 0.191202,-0.0181 0.01086,0.0135 0.02462,0.0192 0.03876,0.0196 -0.0122,0.0111 -0.01868,0.0279 -0.01189,0.045 0.06209,0.15558 -0.004,0.28227 -0.153996,0.35812 -0.152753,0.0776 -0.305258,0.0523 -0.4439,-0.0388 -0.261988,-0.17189 -0.293512,-0.49659 -0.189653,-0.77256 0.01064,0.001 0.02203,5.5e-4 0.03256,-0.003 z" />
    <path
       id="path188"
       style="fill:#100f0d;fill-opacity:1;fill-rule:nonzero;stroke:none;stroke-width:0.0352778"
       d="m 43.348258,274.38842 c -0.0082,4.1e-4 -0.01706,0.003 -0.02584,0.007 -0.319617,0.14852 -0.640739,0.2998 -0.944128,0.48007 -0.03792,0.0226 -0.04219,0.0622 -0.02791,0.0935 -0.01356,0.0309 -0.0088,0.0697 0.02842,0.092 0.323498,0.19368 0.671861,0.36049 1.014408,0.51677 0.05547,0.0253 0.106821,-0.0256 0.100252,-0.0708 0.01279,0.0154 0.03286,0.0237 0.05633,0.016 0.218369,-0.0709 0.420576,-0.28723 0.570507,-0.45269 0.02075,-0.023 0.0211,-0.05 0.01034,-0.0713 0.01374,-0.0225 0.01473,-0.0524 -0.0093,-0.077 -0.156281,-0.15981 -0.389818,-0.46285 -0.624768,-0.49919 -0.03634,-0.005 -0.08055,0.0327 -0.05374,0.0708 0.07056,0.0998 0.185402,0.15801 0.278536,0.23668 0.100666,0.0857 0.196965,0.17662 0.291455,0.2682 -0.162575,0.15541 -0.364744,0.27024 -0.518831,0.42943 -0.01373,0.0142 -0.01738,0.0333 -0.01395,0.0506 -0.0051,-0.006 -0.01197,-0.0106 -0.02015,-0.015 -0.312993,-0.16675 -0.638672,-0.3165 -0.945679,-0.49506 0.285633,-0.16414 0.588884,-0.29603 0.870231,-0.46767 0.05958,-0.0364 0.02136,-0.11505 -0.03617,-0.11214 z" />
    <path
       id="path192"
       style="fill:#100f0d;fill-opacity:1;fill-rule:nonzero;stroke:none;stroke-width:0.0352778"
       d="m 22.95002,292.6519 c -0.01928,0.002 -0.03752,0.012 -0.05013,0.0341 -0.175154,0.30833 -0.206221,0.65712 -0.104903,0.99684 0.06639,0.2226 0.208457,0.6735 0.490926,0.65939 0.04561,-0.002 0.06825,-0.0654 0.02429,-0.0894 -0.468665,-0.25682 -0.519024,-1.08523 -0.288871,-1.49551 0.0318,-0.0568 -0.02203,-0.10954 -0.07131,-0.10542 z" />
    <path
       id="path193"
       style="fill:#100f0d;fill-opacity:1;fill-rule:nonzero;stroke:none;stroke-width:0.0352778"
       d="m 29.196151,292.33564 c -2.107848,0.0279 -3.322222,2.98453 -5.522144,2.13786 -0.06653,-0.0254 -0.115375,0.0881 -0.04909,0.11627 2.204721,0.9398 3.519833,-2.02414 5.571236,-2.1208 0.08537,-0.004 0.08643,-0.13438 0,-0.13333 z" />
    <path
       id="path194"
       style="fill:#100f0d;fill-opacity:1;fill-rule:nonzero;stroke:none;stroke-width:0.0352778"
       d="m 29.786296,292.32479 c -0.08149,0.006 -0.08326,0.1322 0,0.12868 0.734836,-0.0293 1.545308,0.0559 2.191597,0.44183 0.427919,0.25576 0.64159,0.66226 0.695565,1.1498 0.05891,0.53552 0.07057,1.30814 -0.74259,1.35082 -0.08184,0.004 -0.0829,0.12604 0,0.12816 0.02295,5.5e-4 0.04573,2.8e-4 0.0677,-5.2e-4 -0.0068,0.0395 0.01578,0.0866 0.0677,0.0894 0.561975,0.0321 1.284747,-0.25087 1.340486,-0.88728 0.0063,-0.0734 -0.119123,-0.0922 -0.129707,-0.0181 -0.07054,0.48495 -0.538498,0.72172 -0.990121,0.75964 0.683866,-0.26397 0.666302,-1.38021 0.399976,-2.00246 -0.140937,-0.3293 -0.390025,-0.57144 -0.695048,-0.74621 0.133152,0.0361 0.26261,0.0849 0.386023,0.15813 0.360538,0.21414 0.715397,0.61108 0.898136,0.98961 0.02893,0.06 0.123949,0.006 0.09043,-0.0532 -0.458386,-0.82196 -1.08843,-1.30391 -2.022099,-1.35444 -0.525925,-0.14208 -1.100901,-0.16522 -1.558044,-0.13384 z m 3.553788,1.65416 c -0.01878,0.002 -0.03538,0.0152 -0.03617,0.0398 -0.0049,0.1457 0.04402,0.28785 0.04754,0.4346 0.0018,0.0804 0.123834,0.0808 0.12454,0 0.0018,-0.15381 3.32e-4,-0.32791 -0.09457,-0.45527 -0.0105,-0.0139 -0.02674,-0.0203 -0.04134,-0.0191 z" />
    <path
       id="path195"
       style="fill:#100f0d;fill-opacity:1;fill-rule:nonzero;stroke:none;stroke-width:0.0352778"
       d="m 33.172652,292.32841 c -0.06074,0.003 -0.09938,0.0916 -0.03359,0.12609 0.717903,0.37324 0.931451,1.42536 1.002007,2.15491 0.0074,0.0755 0.114622,0.0776 0.118855,0 0.03038,-0.56669 -0.16878,-1.35555 -0.574642,-1.86862 0.286392,0.17364 0.563955,0.35003 0.782898,0.62063 0.144286,0.17745 0.256436,0.37109 0.310059,0.59686 0.04233,0.16793 0.04695,0.33623 0.01344,0.50592 -0.01799,0.24024 -0.161813,0.34261 -0.430982,0.30592 -0.06032,-0.0448 -0.141103,0.0583 -0.08113,0.1049 0.494242,0.38347 0.715185,-0.43851 0.671794,-0.80046 -0.09313,-0.78105 -0.827747,-1.33809 -1.5012,-1.62419 -0.02124,-0.009 -0.04118,-0.007 -0.05736,10e-4 -0.05874,-0.044 -0.120095,-0.0824 -0.184485,-0.11473 -0.01224,-0.006 -0.02441,-0.009 -0.03566,-0.008 z" />
    <path
       id="path197"
       style="fill:#100f0d;fill-opacity:1;fill-rule:nonzero;stroke:none;stroke-width:0.0352778"
       d="m 23.978381,292.07158 c -0.31206,0.005 -0.617839,0.12424 -0.783414,0.38499 -0.03514,0.055 0.04615,0.11932 0.09095,0.0703 0.299967,-0.32915 0.825326,-0.40146 1.21698,-0.19121 0.466584,0.25048 0.541512,0.7774 0.323495,1.21802 -0.02646,0.0536 0.04428,0.11936 0.08785,0.0682 0.351543,-0.41557 0.175924,-1.08547 -0.259933,-1.36839 -0.186598,-0.12101 -0.433214,-0.18585 -0.675928,-0.18191 z m 1.594218,0.25114 c -0.03452,0.002 -0.06322,0.0483 -0.04393,0.0817 0.202424,0.35207 0.144364,0.67493 -0.08578,1.00407 -0.181469,0.25964 -0.560762,0.4846 -0.879532,0.46767 -0.0038,-2.1e-4 -0.0075,-3.6e-4 -0.01085,0 0.06093,-0.0157 0.120531,-0.0378 0.179833,-0.0636 0.06605,-0.0288 0.02845,-0.13712 -0.03462,-0.13436 -0.0065,2.9e-4 -0.01316,0.002 -0.02015,0.005 -0.108197,0.0444 -0.216686,0.0637 -0.331762,0.0816 -0.07881,0.0124 -0.05722,0.13521 0.0186,0.13591 0.05985,6.4e-4 0.117432,-0.007 0.173633,-0.0207 -0.04726,0.0196 -0.0375,0.10528 0.02532,0.11111 0.399379,0.0377 0.828687,-0.25464 1.038696,-0.58343 0.198437,-0.3108 0.347065,-0.81327 -0.0016,-1.07539 -0.0083,-0.006 -0.0165,-0.009 -0.02481,-0.009 -0.0011,-3e-5 -0.002,-6e-5 -0.0031,0 z" />
    <path
       id="path200"
       style="fill:#100f0d;fill-opacity:1;fill-rule:nonzero;stroke:none;stroke-width:0.0352778"
       d="m 26.684676,292.36458 c -0.02239,0.002 -0.04286,0.0154 -0.04806,0.0429 -0.07288,0.38453 -0.20224,0.70513 -0.507463,0.96584 -0.05965,0.0508 0.02652,0.13465 0.08578,0.0853 0.300673,-0.2487 0.536799,-0.63467 0.538986,-1.03507 2.51e-4,-0.0387 -0.03653,-0.0614 -0.06925,-0.0589 z" />
    <path
       id="path201"
       style="fill:#100f0d;fill-opacity:1;fill-rule:nonzero;stroke:none;stroke-width:0.0352778"
       d="m 30.535087,292.79763 c -0.04053,-9e-5 -0.05794,0.0347 -0.05323,0.0687 -0.02365,-0.007 -0.04717,-0.0142 -0.0708,-0.0212 -0.08608,-0.0254 -0.122581,0.1079 -0.03721,0.13436 0.250472,0.0769 0.529903,0.15389 0.711584,0.35708 0.165076,0.18434 0.304336,0.68591 0.09715,0.89142 -0.108956,-0.16095 -0.34178,-0.2277 -0.528133,-0.1974 -0.269169,0.0434 -0.449684,0.26149 -0.541053,0.50384 -0.02364,0.0625 0.08187,0.10774 0.109038,0.046 0.07867,-0.1785 0.211557,-0.34553 0.40876,-0.39739 0.212372,-0.0561 0.352121,0.0501 0.49041,0.19224 0.03614,0.0367 0.100749,0.0102 0.106453,-0.0357 0.0076,-0.002 0.01505,-0.006 0.02222,-0.0114 0.236361,-0.18591 0.162665,-0.59919 0.0646,-0.84543 -0.10173,-0.25573 -0.303506,-0.40508 -0.536401,-0.50849 0.528496,0.13391 1.01565,0.48608 1.066085,1.07745 0.0035,0.0427 0.0663,0.0709 0.08888,0.0243 0.129469,-0.26705 -0.170917,-0.67899 -0.35295,-0.86455 -0.264231,-0.26917 -0.675196,-0.37178 -1.037146,-0.41341 -0.0029,-3.3e-4 -0.0056,-5.1e-4 -0.0083,-5.1e-4 z m 1.305347,1.43557 c -0.02485,0.002 -0.0485,0.0159 -0.05736,0.047 -0.08678,0.30798 -0.249944,0.57197 -0.499711,0.77412 -0.352778,0.28575 -0.884271,0.27207 -1.079004,-0.20206 -0.01446,-0.0363 -0.08061,-0.0508 -0.08837,0 -0.06068,0.39899 0.546908,0.60849 0.862997,0.53124 0.478719,-0.11713 0.807876,-0.6242 0.932759,-1.06764 0.01478,-0.052 -0.0299,-0.0853 -0.07131,-0.0827 z" />
    <path
       id="path207"
       style="fill:#100f0d;fill-opacity:1;fill-rule:nonzero;stroke:none;stroke-width:0.0352778"
       d="M 34.64078 292.27518 C 34.590627 292.27568 34.541928 292.27843 34.495052 292.28293 C 34.439012 292.28793 34.415853 292.34333 34.427873 292.38422 C 34.349223 292.37192 34.317197 292.49108 34.3979 292.51083 C 34.793364 292.60643 35.149863 292.79536 35.433496 293.09064 C 35.723479 293.39155 35.808626 293.7666 36.030876 294.1035 C 36.077446 294.1741 36.188661 294.11053 36.144564 294.03683 C 35.909614 293.64313 35.807993 293.24727 35.461918 292.92166 C 35.212751 292.68706 34.918065 292.5205 34.593237 292.42556 C 35.297469 292.42056 36.319121 292.7714 36.539372 293.50457 C 36.547441 293.53174 36.56669 293.54567 36.587948 293.54952 C 36.635225 293.57212 36.708427 293.53393 36.692334 293.46632 C 36.657404 293.32238 36.677857 293.19346 36.758997 293.06893 C 36.760937 293.06595 36.762258 293.06309 36.763647 293.06015 C 36.773614 293.06014 36.784498 293.05712 36.795687 293.05085 C 37.096607 292.88258 37.408585 292.84782 37.679871 293.10459 C 37.975852 293.3847 38.017632 293.75358 37.916032 294.1314 C 37.893812 294.2147 38.021587 294.24957 38.045223 294.16706 C 38.173987 293.71692 38.105763 293.25205 37.720178 292.94336 C 37.585946 292.83612 37.396266 292.76431 37.210132 292.75681 C 37.023997 292.74981 36.841734 292.80621 36.72179 292.95576 C 36.716484 292.96238 36.712845 292.96971 36.710421 292.97695 C 36.688417 292.97437 36.665011 292.98206 36.648926 293.00485 C 36.605602 293.06619 36.57421 293.12993 36.555391 293.19657 C 36.237116 292.64404 35.434829 292.32179 34.795292 292.28035 L 34.795292 292.27983 C 34.742538 292.27633 34.690932 292.27468 34.64078 292.27518 z M 36.192106 294.21873 C 36.189175 294.2187 36.186222 294.21893 36.183321 294.21925 C 36.139021 294.22425 36.100165 294.26954 36.131645 294.31744 C 36.35707 294.66034 36.619819 294.86122 37.038566 294.87709 C 37.453786 294.89299 37.750944 294.78489 37.981661 294.41976 C 38.031051 294.34176 37.907891 294.27046 37.858154 294.34741 C 37.678237 294.62575 37.361358 294.74543 37.038566 294.73343 C 36.679791 294.71963 36.444767 294.53831 36.247917 294.24974 C 36.233383 294.2283 36.212625 294.21897 36.192106 294.21873 z " />
    <path
       id="path210"
       d="m 36.721369,293.02263 c 0.0021,0 0.0021,-0.003 0,-0.003 -0.0021,0 -0.0021,0.003 0,0.003 v 0"
       style="fill:#100f0d;fill-opacity:1;fill-rule:nonzero;stroke:none;stroke-width:0.0352778" />
    <path
       id="path213"
       style="fill:#100f0d;fill-opacity:1;fill-rule:nonzero;stroke:none;stroke-width:0.0352778"
       d="m 29.17393,292.92941 c -0.140919,-0.001 -0.284234,0.0369 -0.411345,0.11782 -0.02182,0.014 -0.03003,0.0332 -0.02842,0.0517 -0.06267,0.0215 -0.116701,0.0572 -0.174149,0.10128 -0.07373,0.0571 -0.0122,0.17525 0.07493,0.12868 0.127706,-0.0674 0.240126,-0.0276 0.357601,0.0331 0.05786,0.0296 0.208791,0.10028 0.193269,0.18707 -0.0032,0.0177 -3.92e-4,0.0329 0.0062,0.045 -0.06422,0.007 -0.115168,0.0589 -0.134876,0.13229 -0.03034,0.11254 0.03773,0.20045 0.125574,0.26148 0.03016,0.0209 0.06458,0.006 0.0832,-0.0196 8.56e-4,0.005 0.0027,0.01 0.0057,0.0145 0.08819,0.13829 0.262739,0.12572 0.385506,0.0315 0.160161,-0.12276 0.250526,-0.36266 0.203606,-0.5581 -0.07955,-0.333 -0.376759,-0.52391 -0.68678,-0.52659 z m 0.01757,0.14314 c 0.17753,0.007 0.344475,0.0805 0.451652,0.24391 0.08149,0.12383 0.109192,0.2556 0.05839,0.39636 -0.06138,0.16933 -0.198896,0.2728 -0.377754,0.20154 -0.0169,-0.007 -0.03286,-5.5e-4 -0.04393,0.0114 -6.22e-4,-0.0139 -0.0068,-0.0274 -0.02015,-0.0382 -0.0635,-0.0984 -0.05724,-0.16228 0.0186,-0.1912 0.03346,-0.0198 0.02925,-0.0606 0.0041,-0.0822 0.0098,-0.007 0.01833,-0.0176 0.02377,-0.032 0.06103,-0.16334 -0.09115,-0.25964 -0.214974,-0.33125 -0.07306,-0.0422 -0.147388,-0.0751 -0.222726,-0.0915 0.0031,-0.0105 0.0039,-0.0219 0.0026,-0.0326 0.103477,-0.0388 0.213876,-0.0584 0.320394,-0.0543 z" />
    <path
       id="path219"
       style="fill:#100f0d;fill-opacity:1;fill-rule:nonzero;stroke:none;stroke-width:0.0352778"
       d="m 22.380029,292.6519 c -0.04736,6.8e-4 -0.09511,0.0511 -0.0646,0.10542 0.230681,0.41134 0.17956,1.23834 -0.289388,1.49552 -0.04371,0.024 -0.02147,0.0873 0.02429,0.0894 0.28388,0.0141 0.425874,-0.43467 0.490926,-0.65939 0.09924,-0.34149 0.07158,-0.68675 -0.104387,-0.99684 -0.01399,-0.0246 -0.03532,-0.0344 -0.05684,-0.0341 z" />
    <path
       id="path220"
       style="fill:#100f0d;fill-opacity:1;fill-rule:nonzero;stroke:none;stroke-width:0.0352778"
       d="m 16.132349,292.33564 c -0.07833,0.007 -0.07464,0.12923 0.0083,0.13333 2.05493,0.0967 3.364623,3.06095 5.570719,2.1208 0.06558,-0.0279 0.01843,-0.14202 -0.04909,-0.11627 -2.200311,0.84702 -3.411875,-2.10999 -5.521627,-2.13786 -0.0027,-3e-5 -0.0057,-2.1e-4 -0.0083,0 z" />
    <path
       id="path221"
       style="fill:#100f0d;fill-opacity:1;fill-rule:nonzero;stroke:none;stroke-width:0.0352778"
       d="m 15.550472,292.32479 c -0.459236,-0.0315 -1.033438,-0.008 -1.558044,0.13384 -0.933,0.0505 -1.564194,0.53276 -2.022616,1.35444 -0.03334,0.0593 0.06136,0.1132 0.09043,0.0532 0.17833,-0.36935 0.53929,-0.79099 0.898136,-0.9896 0.120731,-0.0667 0.244931,-0.11344 0.371554,-0.14883 -0.297222,0.17405 -0.539924,0.41366 -0.680062,0.73691 -0.269685,0.62197 -0.284375,1.7385 0.399975,2.00246 -0.451662,-0.0378 -0.919751,-0.27457 -0.99012,-0.75964 -0.01076,-0.0734 -0.136023,-0.0564 -0.129708,0.0181 0.05567,0.63641 0.778419,0.91938 1.33997,0.88728 0.05195,-0.003 0.07502,-0.0499 0.06821,-0.0894 0.02199,7.9e-4 0.0442,0.001 0.06718,5.2e-4 0.08269,-0.002 0.08202,-0.12393 0,-0.12816 -0.23562,-0.15946 -0.471277,-0.31959 -0.706933,-0.47904 -0.01598,-0.10407 -0.0317,-0.20822 -0.04754,-0.31264 -0.01118,-0.14993 -0.0067,-0.31119 0.0062,-0.46147 0.04537,-0.52776 0.229926,-0.96525 0.701766,-1.24747 0.647136,-0.387 1.454891,-0.47147 2.191597,-0.44184 0.08326,0.004 0.08185,-0.12303 0,-0.12867 z m -3.560506,1.65416 c -0.0127,8e-4 -0.02568,0.007 -0.03462,0.0191 -0.09469,0.12665 -0.09661,0.30217 -0.09509,0.45528 8.11e-4,0.0804 0.123152,0.0804 0.125057,0 0.0033,-0.14676 0.05209,-0.28891 0.04754,-0.4346 -0.0011,-0.0273 -0.02172,-0.0411 -0.04289,-0.0398 z" />
    <path
       id="path222"
       style="fill:#100f0d;fill-opacity:1;fill-rule:nonzero;stroke:none;stroke-width:0.0352778"
       d="m 12.157397,292.32841 c -0.0092,5.1e-4 -0.01919,0.003 -0.02894,0.008 -0.06444,0.0323 -0.125709,0.0707 -0.184485,0.11472 -0.01617,-0.008 -0.03659,-0.01 -0.05788,-0.001 -0.676063,0.28716 -1.404856,0.84244 -1.5012,1.62419 -0.04477,0.36266 0.178327,1.18359 0.671793,0.80047 0.05927,-0.0462 -0.01969,-0.15041 -0.08062,-0.1049 -0.269416,0.0367 -0.413577,-0.0657 -0.431498,-0.30593 -0.03348,-0.16968 -0.029,-0.33799 0.01344,-0.50591 0.05334,-0.22578 0.166055,-0.41942 0.310058,-0.59686 0.219124,-0.27066 0.497005,-0.44696 0.783415,-0.62064 -0.406128,0.51315 -0.605623,1.30214 -0.575159,1.86862 0.0041,0.0773 0.111554,0.0755 0.118856,0 0.07056,-0.72813 0.285396,-1.78202 1.002523,-2.1549 0.06825,-0.0355 0.02407,-0.12966 -0.04031,-0.12609 z" />
    <path
       id="path224"
       style="fill:#100f0d;fill-opacity:1;fill-rule:nonzero;stroke:none;stroke-width:0.0352778"
       d="m 21.358386,292.07158 c -0.242534,-0.004 -0.488852,0.0614 -0.675928,0.1819 -0.436986,0.28187 -0.611052,0.95352 -0.259932,1.36839 0.04297,0.0508 0.114451,-0.0142 0.08785,-0.0682 -0.220062,-0.44485 -0.141467,-0.9626 0.323494,-1.21801 0.389573,-0.21414 0.918495,-0.13583 1.21698,0.1912 0.0441,0.0487 0.126368,-0.0145 0.09095,-0.0703 -0.165953,-0.26114 -0.471585,-0.38013 -0.783415,-0.38499 z m -1.597318,0.25114 c -0.0083,2.4e-4 -0.01705,0.003 -0.02532,0.009 -0.349073,0.26212 -0.199299,0.76459 -0.001,1.07539 0.21015,0.32914 0.63827,0.62118 1.038179,0.58343 0.06312,-0.006 0.07286,-0.092 0.02481,-0.11111 0.0565,0.0136 0.11449,0.0213 0.174666,0.0207 0.07496,-7e-4 0.09775,-0.12356 0.01809,-0.13591 -0.115217,-0.018 -0.222661,-0.0369 -0.331246,-0.0817 -0.07387,-0.0303 -0.128503,0.0976 -0.05478,0.12971 0.0594,0.0258 0.118684,0.0484 0.179834,0.0641 -0.0036,-4.3e-4 -0.0073,-7.5e-4 -0.01137,-5.1e-4 -0.318594,0.0169 -0.697887,-0.20803 -0.879533,-0.46768 -0.229834,-0.32914 -0.287723,-0.652 -0.08527,-1.00407 0.01992,-0.0344 -0.01111,-0.0827 -0.04703,-0.0816 z" />
    <path
       id="path227"
       style="fill:#100f0d;fill-opacity:1;fill-rule:nonzero;stroke:none;stroke-width:0.0352778"
       d="m 18.646924,292.36458 c -0.0313,-1.3e-4 -0.06481,0.0218 -0.0646,0.0589 0.0022,0.40041 0.238794,0.78637 0.539502,1.03508 0.05923,0.0494 0.144814,-0.0345 0.08527,-0.0853 -0.305506,-0.2607 -0.434026,-0.58165 -0.506945,-0.96583 -0.0056,-0.0293 -0.02888,-0.0428 -0.05323,-0.0429 z" />
    <path
       id="path228"
       style="fill:#100f0d;fill-opacity:1;fill-rule:nonzero;stroke:none;stroke-width:0.0352778"
       d="m 14.801164,292.79763 c -0.0027,10e-6 -0.0054,1.9e-4 -0.0083,5.2e-4 -0.361703,0.0416 -0.773268,0.14424 -1.037146,0.41341 -0.182174,0.18556 -0.48235,0.59749 -0.352951,0.86455 0.02261,0.0466 0.08555,0.0184 0.0894,-0.0243 0.05018,-0.59092 0.53643,-0.94279 1.064534,-1.07694 -0.23242,0.10324 -0.433603,0.25216 -0.535368,0.50798 -0.09853,0.24765 -0.17215,0.65916 0.0646,0.84543 0.0072,0.006 0.01452,0.01 0.02222,0.0119 0.0059,0.0458 0.07097,0.0719 0.10697,0.0351 0.138324,-0.14217 0.277895,-0.24833 0.490409,-0.19224 0.19692,0.0519 0.329715,0.21889 0.408244,0.39739 0.02716,0.061 0.133026,0.0175 0.109037,-0.046 -0.09151,-0.24236 -0.271259,-0.46045 -0.540535,-0.50384 -0.186351,-0.0303 -0.419142,0.0361 -0.528133,0.19688 -0.20353,-0.20337 -0.0653,-0.71392 0.09715,-0.8909 0.184397,-0.20144 0.458903,-0.27947 0.711068,-0.35708 0.0853,-0.0265 0.0496,-0.15976 -0.03669,-0.13436 -0.02359,0.007 -0.04719,0.0139 -0.0708,0.0212 0.0047,-0.034 -0.01316,-0.0688 -0.05374,-0.0687 z m -1.311031,1.43557 c -0.03953,8.8e-4 -0.07954,0.0333 -0.06563,0.0827 0.12513,0.44344 0.454004,0.95052 0.932759,1.06764 0.315701,0.0773 0.92412,-0.13224 0.863513,-0.53124 -0.0076,-0.0508 -0.07413,-0.0363 -0.08888,0 -0.194733,0.47414 -0.725709,0.48781 -1.078487,0.20206 -0.249978,-0.20214 -0.412786,-0.46614 -0.499711,-0.77411 -0.0095,-0.0335 -0.03652,-0.0476 -0.06356,-0.047 z" />
    <path
       id="path234"
       style="fill:#100f0d;fill-opacity:1;fill-rule:nonzero;stroke:none;stroke-width:0.0352778"
       d="m 10.577649,292.27777 c -0.645996,0.0311 -1.472524,0.35489 -1.79679,0.91829 -0.01888,-0.0664 -0.04975,-0.13004 -0.09302,-0.19121 -0.01605,-0.0227 -0.03956,-0.0304 -0.0615,-0.0279 -0.0024,-0.007 -0.0065,-0.0145 -0.01189,-0.0212 -0.240488,-0.30021 -0.728831,-0.22583 -0.998388,-0.0124 -0.386962,0.30657 -0.452692,0.77532 -0.324528,1.2237 0.02371,0.0826 0.151146,0.0476 0.128674,-0.0357 -0.101565,-0.37747 -0.05904,-0.74706 0.236161,-1.02681 0.272132,-0.25788 0.58304,-0.22237 0.884701,-0.0537 0.01109,0.006 0.02159,0.009 0.03152,0.009 0.0014,0.003 0.0032,0.006 0.0052,0.009 0.08061,0.12383 0.100858,0.25311 0.06615,0.39739 -0.01642,0.068 0.05813,0.10684 0.10542,0.0832 0.02089,-0.004 0.04002,-0.0186 0.04806,-0.0455 0.21976,-0.73253 1.243486,-1.08366 1.945618,-1.079 -0.324643,0.0949 -0.619203,0.26124 -0.868681,0.49609 -0.345228,0.32456 -0.447978,0.72254 -0.682646,1.11518 -0.04382,0.0737 0.06778,0.13722 0.114205,0.0667 0.222003,-0.3362 0.307572,-0.71194 0.597379,-1.01286 0.283316,-0.29492 0.639968,-0.4842 1.035079,-0.57981 0.08057,-0.0197 0.04871,-0.13873 -0.02997,-0.12661 0.01198,-0.0409 -0.01074,-0.0959 -0.06666,-0.10128 -0.08293,-0.008 -0.171781,-0.009 -0.264066,-0.005 z m -1.437122,1.94096 c -0.01919,0.001 -0.03855,0.0109 -0.05219,0.031 -0.198967,0.29175 -0.427442,0.47029 -0.790133,0.48369 -0.331435,0.012 -0.636131,-0.10168 -0.820104,-0.38602 -0.04964,-0.0769 -0.172449,-0.006 -0.12299,0.0723 0.228071,0.36089 0.529674,0.47498 0.943094,0.45734 0.419876,-0.0173 0.678992,-0.21358 0.906922,-0.55966 0.03456,-0.0525 -0.01556,-0.10187 -0.0646,-0.0987 z" />
    <path
       id="path237"
       d="m 8.615173,293.02263 c 0.0018,0 0.0018,-0.003 0,-0.003 -0.0019,0 -0.0019,0.003 0,0.003 v 0"
       style="fill:#100f0d;fill-opacity:1;fill-rule:nonzero;stroke:none;stroke-width:0.0352778" />
    <path
       id="path240"
       style="fill:#100f0d;fill-opacity:1;fill-rule:nonzero;stroke:none;stroke-width:0.0352778"
       d="m 16.162321,292.92992 c -0.310006,0.003 -0.607107,0.19307 -0.68678,0.52607 -0.04575,0.19085 0.03779,0.41142 0.183452,0.54054 0.121003,0.10759 0.310586,0.13491 0.40566,-0.014 0.0029,-0.005 0.0049,-0.01 0.0057,-0.015 0.01849,0.026 0.05307,0.0414 0.08372,0.0202 0.08763,-0.061 0.155877,-0.14859 0.125573,-0.26148 -0.01955,-0.0731 -0.07103,-0.12487 -0.135392,-0.13229 0.0067,-0.0121 0.0094,-0.0273 0.0062,-0.045 -0.01573,-0.0868 0.135696,-0.15743 0.19327,-0.18707 0.11744,-0.0607 0.230142,-0.10045 0.357601,-0.0331 0.08696,0.0466 0.149315,-0.0715 0.07545,-0.12867 -0.05742,-0.0441 -0.111937,-0.0798 -0.174667,-0.10129 0.0016,-0.0185 -0.0061,-0.0382 -0.0279,-0.0522 v 5.2e-4 c -0.12707,-0.0808 -0.270975,-0.11853 -0.411887,-0.11731 z m -0.01705,0.14211 c 0.106559,-0.004 0.216875,0.0158 0.320394,0.0548 -0.0013,0.0106 -5.53e-4,0.0221 0.0026,0.0326 -0.07538,0.0164 -0.149719,0.0493 -0.222725,0.0915 -0.124001,0.0716 -0.276287,0.16721 -0.214974,0.33125 0.0054,0.0144 0.01396,0.0249 0.02377,0.032 -0.02511,0.0215 -0.02947,0.0623 0.0041,0.0822 0.07564,0.0289 0.08162,0.0928 0.01809,0.1912 -0.01341,0.0109 -0.01918,0.0246 -0.01964,0.0388 -0.01103,-0.0122 -0.02741,-0.0187 -0.04444,-0.0119 -0.155999,0.0621 -0.282164,-0.004 -0.358117,-0.15399 -0.07758,-0.15276 -0.05219,-0.30526 0.03876,-0.4439 0.107298,-0.16373 0.274571,-0.23756 0.452169,-0.24443 z" />
    <path
       id="path246"
       style="fill:#100f0d;fill-opacity:1;fill-rule:nonzero;stroke:none;stroke-width:0.0352778"
       d="m 22.728328,294.69984 c -0.01065,3.5e-4 -0.02122,0.003 -0.03101,0.007 -0.03096,-0.0135 -0.06959,-0.009 -0.09198,0.0284 -0.193322,0.3235 -0.359862,0.67238 -0.516248,1.01493 -0.02551,0.0557 0.02602,0.10674 0.07131,0.0997 -0.01565,0.0127 -0.0248,0.033 -0.01705,0.0563 0.07108,0.21907 0.287163,0.42022 0.452686,0.5705 0.02289,0.0207 0.05007,0.021 0.07131,0.0103 0.02249,0.0139 0.05189,0.0149 0.07648,-0.009 0.159985,-0.15628 0.463763,-0.3893 0.499711,-0.62425 0.0055,-0.0367 -0.03236,-0.0811 -0.07028,-0.0543 -0.100048,0.0706 -0.158525,0.18592 -0.237195,0.27906 -0.08531,0.10066 -0.175971,0.19644 -0.267684,0.29093 -0.155315,-0.16287 -0.271016,-0.36455 -0.429948,-0.51831 -0.0144,-0.014 -0.0336,-0.0176 -0.05116,-0.0139 0.0058,-0.005 0.01155,-0.0118 0.01602,-0.0202 0.167039,-0.3131 0.315958,-0.63936 0.494543,-0.9462 0.164196,0.28568 0.296511,0.58888 0.468189,0.87023 0.04149,0.0681 0.138228,0.009 0.10542,-0.062 -0.148696,-0.31926 -0.299699,-0.64057 -0.480074,-0.94361 -0.01557,-0.0261 -0.03962,-0.0364 -0.06305,-0.0357 z" />
  </g>
</svg>
